<?xml version="1.0" encoding="UTF-8" standalone="yes"?><svg xmlns="http://www.w3.org/2000/svg" xmlns:xlink="http://www.w3.org/1999/xlink" version="1.2" baseProfile="tiny" x="0" y="0" width="25" height="25" viewBox="0 0 25.2452 25.3281"><defs/><path fill="#6796ff" d="M 7.08353 0 L 18.1617 0 C 19.5054 0 20.5367 1.07813 20.4898 2.375 C 20.4898 2.67188 20.4898 2.90625 20.4898 3.15625 L 22.9117 3.15625 C 24.1929 3.15625 25.3335 4.25 25.2398 5.64063 C 24.896 10.7813 22.271 13.5938 19.396 15.0313 C 18.6617 15.4844 17.8648 15.7813 17.0679 15.9688 C 16.0835 17.4063 15.0523 18.1563 14.2085 18.5469 L 14.2085 22.1563 L 17.3648 22.1563 C 18.2554 22.1563 18.9585 22.8438 18.9585 23.7344 C 18.9585 24.625 18.2554 25.3281 17.3648 25.3281 L 7.8804 25.3281 C 7.03665 25.3281 6.28665 24.625 6.28665 23.7344 C 6.28665 22.8438 7.03665 22.1563 7.8804 22.1563 L 11.0367 22.1563 L 11.0367 18.5469 C 10.2554 18.1563 9.2554 17.4531 8.3179 16.1719 C 7.42728 15.9219 6.4429 15.5781 5.4429 15.0313 C 2.77103 13.5 0.349152 10.6719 0.00540165 5.64063 C -0.0883483 4.25 1.05228 3.15625 2.33353 3.15625 L 4.80228 3.15625 C 4.80228 2.90625 4.7554 2.67188 4.7554 2.375 C 4.70853 1.07813 5.80228 0 7.08353 0 M 5.0054 5.53125 L 2.3804 5.53125 C 2.67728 9.73438 4.61478 11.8125 6.58353 12.9531 C 5.89603 11.0781 5.30228 8.70313 5.0054 5.53125 M 18.7554 12.7031 C 20.7867 11.5156 22.5679 9.4375 22.8648 5.53125 L 20.2867 5.53125 C 19.9898 8.54688 19.4429 10.875 18.7554 12.7031"/></svg>
