<?xml version="1.0" encoding="UTF-8" standalone="yes"?><svg xmlns="http://www.w3.org/2000/svg" xmlns:xlink="http://www.w3.org/1999/xlink" version="1.2" baseProfile="tiny" x="0" y="0" width="26" height="26" viewBox="0 0 26.9219 26.9063"><defs/><path fill="#6796ff" d="M 0 2.375 C 0 1.07813 1.09375 0 2.375 0 L 4.75 0 C 5.64063 0 6.34375 0.6875 6.34375 1.57813 C 6.34375 2.46875 5.64063 3.15625 4.75 3.15625 L 3.17188 3.15625 L 3.17188 9.48438 C 3.17188 12.1094 5.29688 14.2344 7.92188 14.2344 C 10.5469 14.2344 12.6719 12.1094 12.6719 9.48438 L 12.6719 3.15625 L 11.0938 3.15625 C 10.2031 3.15625 9.5 2.46875 9.5 1.57813 C 9.5 0.6875 10.2031 0 11.0938 0 L 13.4531 0 C 14.7969 0 15.8281 1.07813 15.8281 2.375 L 15.8281 9.48438 C 15.8281 13.2969 13.1094 16.5156 9.5 17.2656 L 9.5 18.2031 C 9.5 21.2656 11.9688 23.7344 15.0469 23.7344 C 18.1094 23.7344 20.5781 21.2656 20.5781 18.2031 L 20.5781 14 C 18.75 13.2969 17.4219 11.5625 17.4219 9.48438 C 17.4219 6.875 19.5469 4.75 22.1719 4.75 C 24.7813 4.75 26.9219 6.875 26.9219 9.48438 C 26.9219 11.5625 25.5781 13.2969 23.75 14 L 23.75 18.2031 C 23.75 23 19.8438 26.9063 15.0469 26.9063 C 10.25 26.9063 6.34375 23 6.34375 18.2031 L 6.34375 17.2656 C 2.71875 16.5156 0 13.2969 0 9.48438 L 0 2.375 M 22.1719 11.0781 C 23.0625 11.0781 23.75 10.375 23.75 9.48438 C 23.75 8.60938 23.0625 7.90625 22.1719 7.90625 C 21.2813 7.90625 20.5781 8.60938 20.5781 9.48438 C 20.5781 10.375 21.2813 11.0781 22.1719 11.0781"/></svg>
