<?xml version="1.0" encoding="UTF-8" standalone="yes"?><svg xmlns="http://www.w3.org/2000/svg" xmlns:xlink="http://www.w3.org/1999/xlink" version="1.2" baseProfile="tiny" x="0" y="0" width="16" height="14" viewBox="0 0 16 14"><defs/><path fill="#6796ff" d="M 2 1 C 2 0.4375 1.5625 0 1 0 C 0.4375 0 0 0.4375 0 1 L 0 11.5 C 0 12.875 1.125 14 2.5 14 L 15 14 C 15.5625 14 16 13.5625 16 13 C 16 12.4375 15.5625 12 15 12 L 2.5 12 C 2.21875 12 2 11.7813 2 11.5 L 2 1 M 14.7188 3.71875 C 15.0938 3.3125 15.0938 2.6875 14.7188 2.28125 C 14.3125 1.90625 13.6875 1.90625 13.2813 2.28125 L 10 5.59375 L 8.21875 3.78125 C 7.8125 3.40625 7.1875 3.40625 6.78125 3.78125 L 3.78125 6.78125 C 3.40625 7.1875 3.40625 7.8125 3.78125 8.21875 C 4.1875 8.59375 4.8125 8.59375 5.21875 8.21875 L 7.5 5.90625 L 9.28125 7.71875 C 9.6875 8.09375 10.3125 8.09375 10.7188 7.71875 L 14.7188 3.71875"/></svg>
