<?xml version="1.0" encoding="UTF-8" standalone="yes"?><svg xmlns="http://www.w3.org/2000/svg" xmlns:xlink="http://www.w3.org/1999/xlink" version="1.2" baseProfile="tiny" x="0" y="0" width="16" height="16" viewBox="0 0 16 16"><defs/><path fill="#6796ff" d="M 10.7188 0.28125 C 10.3125 -0.09375 9.6875 -0.09375 9.28125 0.28125 C 8.90625 0.6875 8.90625 1.3125 9.28125 1.71875 L 9.59375 2 L 0.875 10.7188 C 0.3125 11.2813 0 12.0313 0 12.8438 L 0 13 C 0 14.6563 1.34375 16 3 16 L 3.1875 16 C 3.96875 16 4.71875 15.6875 5.28125 15.125 L 14 6.40625 L 14.2813 6.71875 C 14.6875 7.09375 15.3125 7.09375 15.7188 6.71875 C 16.0938 6.3125 16.0938 5.6875 15.7188 5.28125 L 10.7188 0.28125 M 6.40625 8 L 11 3.40625 L 12.5938 5 L 9.59375 8 L 6.40625 8"/></svg>
