<?xml version="1.0" encoding="UTF-8" standalone="yes"?><svg xmlns="http://www.w3.org/2000/svg" xmlns:xlink="http://www.w3.org/1999/xlink" version="1.2" baseProfile="tiny" x="0" y="0" width="24" height="21" viewBox="0 0 24 21.3281"><defs/><path fill="#6796ff" d="M 5.32813 2.65625 C 5.32813 1.20313 6.54688 0 8 0 L 16 0 C 17.4531 0 18.6563 1.20313 18.6563 2.65625 L 18.6563 5.32813 L 21.3281 5.32813 C 22.7813 5.32813 24 6.53125 24 7.98438 L 24 18.6563 C 24 20.1094 22.7813 21.3281 21.3281 21.3281 L 2.67188 21.3281 C 1.20313 21.3281 0 20.1094 0 18.6563 L 0 7.98438 C 0 6.53125 1.20313 5.32813 2.67188 5.32813 L 5.32813 5.32813 L 5.32813 2.65625 M 11.3281 14.6563 C 10.5781 14.6563 10 15.2344 10 15.9844 L 10 19.3281 L 14 19.3281 L 14 15.9844 C 14 15.2344 13.4063 14.6563 12.6563 14.6563 L 11.3281 14.6563 M 5.32813 15.3281 L 5.32813 13.9844 C 5.32813 13.6094 5.04688 13.3281 4.67188 13.3281 L 3.32813 13.3281 C 2.95313 13.3281 2.67188 13.6094 2.67188 13.9844 L 2.67188 15.3281 C 2.67188 15.7031 2.95313 15.9844 3.32813 15.9844 L 4.67188 15.9844 C 5.04688 15.9844 5.32813 15.7031 5.32813 15.3281 M 4.67188 10.6563 C 5.04688 10.6563 5.32813 10.3594 5.32813 9.98438 L 5.32813 8.65625 C 5.32813 8.28125 5.04688 7.98438 4.67188 7.98438 L 3.32813 7.98438 C 2.95313 7.98438 2.67188 8.28125 2.67188 8.65625 L 2.67188 9.98438 C 2.67188 10.3594 2.95313 10.6563 3.32813 10.6563 L 4.67188 10.6563 M 21.3281 15.3281 L 21.3281 13.9844 C 21.3281 13.6094 21.0313 13.3281 20.6563 13.3281 L 19.3281 13.3281 C 18.9531 13.3281 18.6563 13.6094 18.6563 13.9844 L 18.6563 15.3281 C 18.6563 15.7031 18.9531 15.9844 19.3281 15.9844 L 20.6563 15.9844 C 21.0313 15.9844 21.3281 15.7031 21.3281 15.3281 M 20.6563 10.6563 C 21.0313 10.6563 21.3281 10.3594 21.3281 9.98438 L 21.3281 8.65625 C 21.3281 8.28125 21.0313 7.98438 20.6563 7.98438 L 19.3281 7.98438 C 18.9531 7.98438 18.6563 8.28125 18.6563 8.65625 L 18.6563 9.98438 C 18.6563 10.3594 18.9531 10.6563 19.3281 10.6563 L 20.6563 10.6563 M 11 4.32813 L 11 5.65625 L 9.67188 5.65625 C 9.29688 5.65625 9 5.95313 9 6.32813 L 9 7 C 9 7.375 9.29688 7.65625 9.67188 7.65625 L 11 7.65625 L 11 8.98438 C 11 9.35938 11.2813 9.65625 11.6563 9.65625 L 12.3281 9.65625 C 12.7031 9.65625 13 9.35938 13 8.98438 L 13 7.65625 L 14.3281 7.65625 C 14.7031 7.65625 15 7.375 15 7 L 15 6.32813 C 15 5.95313 14.7031 5.65625 14.3281 5.65625 L 13 5.65625 L 13 4.32813 C 13 3.95313 12.7031 3.65625 12.3281 3.65625 L 11.6563 3.65625 C 11.2813 3.65625 11 3.95313 11 4.32813"/></svg>
