<?xml version="1.0" encoding="UTF-8" standalone="yes"?><svg xmlns="http://www.w3.org/2000/svg" xmlns:xlink="http://www.w3.org/1999/xlink" version="1.2" baseProfile="tiny" x="0" y="0" width="16" height="13" viewBox="0 0 16.9306 13"><defs/><path fill="#6796ff" d="M 0.75 6.0625 L 0 8.25 L 0 2 C 0 0.90625 0.90625 0 2 0 L 6.34375 0 C 6.78125 0 7.1875 0.15625 7.5625 0.40625 L 8.75 1.3125 C 8.90625 1.4375 9.125 1.5 9.34375 1.5 L 13 1.5 C 14.125 1.5 15 2.40625 15 3.5 L 15 4 L 3.59375 4 C 2.3125 4 1.15625 4.8125 0.75 6.0625 M 13.9375 13 L 2.09375 13 C 1.0625 13 0.34375 12 0.6875 11.0313 L 2.1875 6.53125 C 2.375 5.90625 2.9375 5.5 3.59375 5.5 L 15.4375 5.5 C 16.4688 5.5 17.1875 6.5 16.8438 7.46875 L 15.3438 11.9688 C 15.1563 12.5938 14.5625 13 13.9375 13"/></svg>
