<?xml version="1.0" encoding="UTF-8" standalone="yes"?><svg xmlns="http://www.w3.org/2000/svg" xmlns:xlink="http://www.w3.org/1999/xlink" version="1.2" baseProfile="tiny" x="0" y="0" width="11" height="17" viewBox="0 0 11 17"><defs/><path fill="#6796ff" d="M 2 5.5 C 2 3.5625 3.5625 2 5.5 2 C 7.4375 2 9 3.5625 9 5.5 C 9 7.4375 7.4375 9 5.5 9 C 3.5625 9 2 7.4375 2 5.5 M 6.5 10.9063 C 9.0625 10.4375 11 8.1875 11 5.5 C 11 2.46875 8.53125 0 5.5 0 C 2.46875 0 0 2.46875 0 5.5 C 0 8.1875 1.9375 10.4375 4.5 10.9063 C 4.5 10.9375 4.5 10.9688 4.5 11 L 4.5 13 L 3.5 13 C 2.9375 13 2.5 13.4375 2.5 14 C 2.5 14.5625 2.9375 15 3.5 15 L 4.5 15 L 4.5 16 C 4.5 16.5625 4.9375 17 5.5 17 C 6.0625 17 6.5 16.5625 6.5 16 L 6.5 15 L 7.5 15 C 8.0625 15 8.5 14.5625 8.5 14 C 8.5 13.4375 8.0625 13 7.5 13 L 6.5 13 L 6.5 11 C 6.5 10.9688 6.5 10.9375 6.5 10.9063"/></svg>
