<?xml version="1.0" encoding="UTF-8" standalone="yes"?><svg xmlns="http://www.w3.org/2000/svg" xmlns:xlink="http://www.w3.org/1999/xlink" version="1.2" baseProfile="tiny" x="0" y="0" width="20" height="19" viewBox="0 0 20 19.9844"><defs/><path fill="#6796ff" d="M 12 1.32813 C 12 0.578125 12.5781 0 13.3281 0 L 18.6719 0 C 19.4219 0 20 0.578125 20 1.32813 L 20 6.65625 C 20 7.40625 19.4219 7.98438 18.6719 7.98438 C 17.9219 7.98438 17.3281 7.40625 17.3281 6.65625 L 17.3281 4.53125 L 13.375 8.48438 C 14.2031 9.70313 14.6719 11.1094 14.6719 12.6563 C 14.6719 16.7031 11.375 19.9844 7.34375 19.9844 C 3.29688 19.9844 0 16.7031 0 12.6563 C 0 8.60938 3.29688 5.32813 7.34375 5.32813 C 8.875 5.32813 10.2969 5.78125 11.5 6.625 L 15.4531 2.65625 L 13.3281 2.65625 C 12.5781 2.65625 12 2.07813 12 1.32813 M 7.34375 17.3281 C 9.92188 17.3281 12 15.2344 12 12.6563 C 12 10.0781 9.92188 7.98438 7.34375 7.98438 C 4.75 7.98438 2.67188 10.0781 2.67188 12.6563 C 2.67188 15.2344 4.75 17.3281 7.34375 17.3281"/></svg>
