<?xml version="1.0" encoding="UTF-8" standalone="yes"?><svg xmlns="http://www.w3.org/2000/svg" xmlns:xlink="http://www.w3.org/1999/xlink" version="1.2" baseProfile="tiny" x="0" y="0" width="17" height="16" viewBox="0 0 17.9997 16"><defs/><path fill="#6796ff" d="M 7.5 0.75 C 7.5 0.34375 7.84375 0 8.25 0 L 9.75 0 C 10.1563 0 10.5 0.34375 10.5 0.75 L 10.5 2.5 L 12.25 2.5 C 12.6563 2.5 13 2.84375 13 3.25 L 13 4.75 C 13 5.15625 12.6563 5.5 12.25 5.5 L 10.5 5.5 L 10.5 7.25 C 10.5 7.65625 10.1563 8 9.75 8 L 8.25 8 C 7.84375 8 7.5 7.65625 7.5 7.25 L 7.5 5.5 L 5.75 5.5 C 5.34375 5.5 5 5.15625 5 4.75 L 5 3.25 C 5 2.84375 5.34375 2.5 5.75 2.5 L 7.5 2.5 L 7.5 0.75 M 2.09375 12 L 3.40625 10.6875 C 4.15625 9.9375 5.1875 9.5 6.25 9.5 L 11 9.5 C 11.5625 9.5 12 9.9375 12 10.5 C 12 11.0625 11.5625 11.5 11 11.5 L 8.75 11.5 C 8.34375 11.5 8 11.8438 8 12.25 C 8 12.6563 8.34375 13 8.75 13 L 12.2813 13 L 16 10.25 C 16.5625 9.84375 17.3438 9.96875 17.75 10.5 C 18.1563 11.0625 18.0625 11.8438 17.5 12.25 L 13.5313 15.1875 C 12.8125 15.7188 11.9375 16 11 16 L 1 16 C 0.4375 16 0 15.5625 0 15 L 0 13 C 0 12.4375 0.4375 12 1 12 L 2.09375 12"/></svg>
