<?xml version="1.0" encoding="UTF-8" standalone="yes"?><svg xmlns="http://www.w3.org/2000/svg" xmlns:xlink="http://www.w3.org/1999/xlink" version="1.2" baseProfile="tiny" x="0" y="0" width="23" height="26" viewBox="0 0 23.75 26.9219"><defs/><path fill="#6796ff" d="M 6.73438 4.35938 L 6.73438 6.34375 L 2.875 6.34375 C 2.1875 6.34375 1.59375 6.9375 1.59375 7.625 C 1.59375 7.82813 1.64063 8.01563 1.73438 8.21875 L 3.375 11.4844 C 2.82813 11.5781 2.375 12.0781 2.375 12.6719 C 2.375 13.3125 2.92188 13.8594 3.5625 13.8594 L 3.85938 13.8594 L 3.17188 20.5781 L 0.40625 24.0469 C 0.15625 24.3906 0 24.7344 0 25.1875 C 0 26.125 0.796875 26.9219 1.73438 26.9219 L 14.0469 26.9219 C 15.0469 26.9219 15.8281 26.125 15.8281 25.1875 C 15.8281 24.7344 15.6875 24.3906 15.4375 24.0469 L 12.6719 20.5781 L 11.9688 13.8594 L 12.2656 13.8594 C 12.9219 13.8594 13.4531 13.3125 13.4531 12.6719 C 13.4531 12.0781 13.0156 11.5781 12.4688 11.4844 L 14.1094 8.21875 C 14.2031 8.01563 14.25 7.82813 14.25 7.625 C 14.25 6.9375 13.6563 6.34375 12.9688 6.34375 L 9.10938 6.34375 L 9.10938 4.35938 L 9.90625 4.35938 C 10.5469 4.35938 11.0938 3.8125 11.0938 3.17188 C 11.0938 2.53125 10.5469 1.98438 9.90625 1.98438 L 9.10938 1.98438 L 9.10938 1.1875 C 9.10938 0.546875 8.5625 0 7.92188 0 C 7.28125 0 6.73438 0.546875 6.73438 1.1875 L 6.73438 1.98438 L 5.9375 1.98438 C 5.29688 1.98438 4.75 2.53125 4.75 3.17188 C 4.75 3.8125 5.29688 4.35938 5.9375 4.35938 L 6.73438 4.35938 M 14.5469 15.4375 L 14.9375 19.6406 L 17.3125 22.5625 L 17.5156 22.8594 C 17.9688 23.5469 18.2031 24.3438 18.2031 25.1875 C 18.2031 25.7813 18.0625 26.375 17.8125 26.9219 L 21.9219 26.9219 C 22.9531 26.9219 23.75 26.125 23.75 25.0781 C 23.75 24.7344 23.6563 24.3906 23.4531 24.0938 L 22.1719 22.1719 L 22.1719 19 L 22.8125 18.3594 C 23.4063 17.7656 23.75 16.9688 23.75 16.125 L 23.75 11.0781 C 23.75 10.2031 23.0625 9.5 22.1719 9.5 C 21.2813 9.5 20.5781 10.2031 20.5781 11.0781 L 20.5781 11.875 L 19 11.875 L 19 11.0781 C 19 10.2031 18.3125 9.5 17.4219 9.5 C 16.5313 9.5 15.8281 10.2031 15.8281 11.0781 L 15.8281 12.6719 C 15.8281 13.75 15.3438 14.75 14.5469 15.4375"/></svg>
