<?xml version="1.0" encoding="UTF-8" standalone="yes"?><svg xmlns="http://www.w3.org/2000/svg" xmlns:xlink="http://www.w3.org/1999/xlink" version="1.2" baseProfile="tiny" x="0" y="0" width="27" height="32" viewBox="0 0 27.5625 32"><defs/><path fill="#6796ff" d="M 16 0 C 7.1875 0 0 7.1875 0 16 C 0 24.8125 7.1875 32 16 32 C 20.3125 32 24.1875 30.3125 27.0625 27.5625 C 27.5625 27.125 27.6875 26.4375 27.4375 25.875 C 27.1875 25.25 26.5625 24.9375 25.9375 24.9375 C 25.625 25 25.3125 25 25 25 C 18.625 25 13.5 19.875 13.5 13.5 C 13.5 9 16.125 5.0625 19.875 3.1875 C 20.4375 2.9375 20.75 2.3125 20.6875 1.6875 C 20.625 1.0625 20.1875 0.5625 19.5625 0.375 C 18.375 0.125 17.1875 0 16 0 Z"/></svg>
