<?xml version="1.0" encoding="UTF-8" standalone="yes"?><svg xmlns="http://www.w3.org/2000/svg" xmlns:xlink="http://www.w3.org/1999/xlink" version="1.2" baseProfile="tiny" x="0" y="0" width="31" height="25" viewBox="0 0 31.6563 25.3281"><defs/><path fill="#6796ff" d="M 15.8281 0 C 19.3438 0 22.1563 2.8125 22.1563 6.32813 C 22.1563 9.84375 19.3438 12.6563 15.8281 12.6563 C 12.3125 12.6563 9.5 9.84375 9.5 6.32813 C 9.5 2.8125 12.3125 0 15.8281 0 M 1.98438 3.15625 C 3.0625 3.15625 3.95313 4.04688 3.95313 5.14063 L 3.95313 13.0469 C 3.95313 13.8906 4.29688 14.7344 4.89063 15.3281 L 7.42188 17.8594 C 7.8125 18.25 8.45313 18.2969 8.95313 18 C 9.59375 17.5625 9.70313 16.6719 9.15625 16.125 C 8.75 15.7813 7.96875 14.9844 6.78125 13.7969 C 6.1875 13.1563 6.1875 12.1563 6.78125 11.5156 C 7.42188 10.9219 8.40625 10.9219 9.04688 11.5156 C 10.2344 12.75 11.0313 13.5 11.375 13.8906 L 12.6094 15.125 C 13.6563 16.1719 14.25 17.5625 14.25 19.0469 L 14.25 22.9531 C 14.25 24.2813 13.1563 25.3281 11.875 25.3281 L 8.5625 25.3281 C 7.71875 25.3281 6.92188 24.9688 6.32813 24.375 L 1.39063 19.4375 C 0.5 18.5469 0 17.3594 0 16.125 L 0 5.14063 C 0 4.04688 0.890625 3.15625 1.98438 3.15625 M 29.6875 3.15625 C 30.7656 3.15625 31.6563 4.04688 31.6563 5.14063 L 31.6563 16.125 C 31.6563 17.3594 31.1719 18.5469 30.2813 19.4375 L 25.3281 24.375 C 24.7344 24.9688 23.9375 25.3281 23.1094 25.3281 L 19.7813 25.3281 C 18.5 25.3281 17.4063 24.2813 17.4063 22.9531 L 17.4063 19.0469 C 17.4063 17.5625 18 16.1719 19.0469 15.125 L 20.2813 13.8906 C 20.625 13.5 21.4219 12.75 22.6094 11.5156 C 23.25 10.9219 24.2344 10.9219 24.8906 11.5156 C 25.4688 12.1563 25.4688 13.1563 24.8906 13.7969 C 23.7031 14.9844 22.9063 15.7813 22.5156 16.125 C 21.9688 16.6719 22.0625 17.5625 22.7031 18 C 23.2031 18.2969 23.8438 18.25 24.2344 17.8594 L 26.7656 15.3281 C 27.3594 14.7344 27.7031 13.8906 27.7031 13.0469 L 27.7031 5.14063 C 27.7031 4.04688 28.5938 3.15625 29.6875 3.15625"/></svg>
