<?xml version="1.0" encoding="UTF-8" standalone="yes"?><svg xmlns="http://www.w3.org/2000/svg" xmlns:xlink="http://www.w3.org/1999/xlink" version="1.2" baseProfile="tiny" x="0" y="0" width="25" height="22" viewBox="0 0 25.3281 22.1563"><defs/><path fill="#6796ff" d="M 12.6719 3.76563 L 11.9219 2.71875 C 10.6875 1.03125 8.70313 0 6.57813 0 C 2.96875 0 0 2.96875 0 6.57813 L 0 6.73438 C 0 7.85938 0.296875 9.09375 0.84375 10.2813 L 6.07813 10.2813 C 6.23438 10.2813 6.375 10.1875 6.4375 10.0469 L 8.01563 6.28125 C 8.21875 5.84375 8.60938 5.54688 9.10938 5.54688 C 9.54688 5.54688 10 5.78125 10.1875 6.23438 L 12.7188 11.875 L 14.7969 7.76563 C 14.9844 7.375 15.3906 7.125 15.8281 7.125 C 16.2813 7.125 16.6719 7.375 16.9219 7.76563 L 18.0625 10.0938 C 18.1094 10.1875 18.25 10.2813 18.4063 10.2813 L 24.5313 10.2813 C 25.0313 9.09375 25.3281 7.85938 25.3281 6.73438 L 25.3281 6.57813 C 25.3281 2.96875 22.3594 0 18.75 0 C 16.625 0 14.6406 1.03125 13.4063 2.71875 L 12.6719 3.76563 M 23.25 12.6563 L 18.4063 12.6563 C 17.3594 12.6563 16.375 12.0625 15.9219 11.125 L 15.8281 10.9844 L 13.75 15.1875 C 13.5 15.5781 13.1094 15.8281 12.6719 15.8281 C 12.1719 15.8281 11.7813 15.5313 11.5781 15.1406 L 9.15625 9.6875 L 8.60938 10.9844 C 8.21875 12.0156 7.17188 12.6563 6.07813 12.6563 L 2.07813 12.6563 C 4.45313 16.3281 8.15625 19.6875 10.5313 21.4688 C 11.125 21.9063 11.875 22.1563 12.6719 22.1563 C 13.4063 22.1563 14.2031 21.9688 14.7969 21.4688 C 17.1719 19.6875 20.875 16.3281 23.25 12.6563"/></svg>
