<?xml version="1.0" encoding="UTF-8" standalone="yes"?><svg xmlns="http://www.w3.org/2000/svg" xmlns:xlink="http://www.w3.org/1999/xlink" version="1.2" baseProfile="tiny" x="0" y="0" width="17" height="17" viewBox="0 0 17 17"><defs/><path fill="#6796ff" d="M 0 1.5 C 0 0.6875 0.6875 0 1.5 0 L 3 0 C 3.5625 0 4 0.4375 4 1 C 4 1.5625 3.5625 2 3 2 L 2 2 L 2 6 C 2 7.65625 3.34375 9 5 9 C 6.65625 9 8 7.65625 8 6 L 8 2 L 7 2 C 6.4375 2 6 1.5625 6 1 C 6 0.4375 6.4375 0 7 0 L 8.5 0 C 9.34375 0 10 0.6875 10 1.5 L 10 6 C 10 8.40625 8.28125 10.4375 6 10.9063 L 6 11.5 C 6 13.4375 7.5625 15 9.5 15 C 11.4375 15 13 13.4375 13 11.5 L 13 8.84375 C 11.8438 8.40625 11 7.3125 11 6 C 11 4.34375 12.3438 3 14 3 C 15.6563 3 17 4.34375 17 6 C 17 7.3125 16.1563 8.40625 15 8.84375 L 15 11.5 C 15 14.5313 12.5313 17 9.5 17 C 6.46875 17 4 14.5313 4 11.5 L 4 10.9063 C 1.71875 10.4375 0 8.40625 0 6 L 0 1.5 M 14 7 C 14.5625 7 15 6.5625 15 6 C 15 5.4375 14.5625 5 14 5 C 13.4375 5 13 5.4375 13 6 C 13 6.5625 13.4375 7 14 7"/></svg>
