<?xml version="1.0" encoding="UTF-8" standalone="yes"?><svg xmlns="http://www.w3.org/2000/svg" xmlns:xlink="http://www.w3.org/1999/xlink" version="1.2" baseProfile="tiny" x="0" y="0" width="36" height="28" viewBox="0 0 36 28"><defs/><path fill="#6796ff" d="M 16.8125 3.3125 L 9.5 11.4375 C 9.25 11.75 9.25 12.25 9.5625 12.5625 C 11.4375 14.4375 14.5625 14.4375 16.4375 12.5625 L 18.4375 10.5625 C 18.6875 10.3125 19.0625 10.125 19.375 10.125 C 19.8125 10.0625 20.25 10.25 20.5625 10.5625 L 31.625 21.5 L 36 18 L 36 0 L 29 4 L 27.5 3 C 26.5 2.375 25.375 2 24.1875 2 L 19.8125 2 C 19.6875 2 19.625 2 19.5625 2 C 18.5 2.0625 17.5 2.5625 16.8125 3.3125 M 7.3125 9.4375 L 13.9375 2 L 11.5 2 C 9.875 2 8.375 2.625 7.25 3.75 L 7 4 L 0 0 L 0 18 L 9.75 26.125 C 11.1875 27.375 13 28 14.875 28 L 15.875 28 L 15.4375 27.5625 C 14.875 27 14.875 26 15.4375 25.4375 C 16 24.875 17 24.875 17.5625 25.4375 L 20.125 28 L 20.6875 28 C 21.875 28 23.0625 27.75 24.125 27.25 L 22.4375 25.5625 C 21.875 25 21.875 24 22.4375 23.4375 C 23 22.875 24 22.875 24.5625 23.4375 L 26.5625 25.4375 L 27.625 24.375 C 28.1875 23.8125 28.375 23 28.125 22.3125 L 19.5 13.75 L 18.5625 14.6875 C 15.5 17.75 10.5 17.75 7.4375 14.6875 C 6 13.25 5.9375 10.9375 7.3125 9.4375"/></svg>
