<?xml version="1.0" encoding="UTF-8" standalone="yes"?><svg xmlns="http://www.w3.org/2000/svg" xmlns:xlink="http://www.w3.org/1999/xlink" version="1.2" baseProfile="tiny" x="0" y="0" width="26" height="19" viewBox="0 0 26.6563 19.3281"><defs/><path fill="#6796ff" d="M 13.3281 0 C 15.7031 0 17.6563 1.96875 17.6563 4.34375 C 17.6563 6.71875 15.7031 8.67188 13.3281 8.67188 C 10.9531 8.67188 9 6.71875 9 4.34375 C 9 1.96875 10.9531 0 13.3281 0 M 4 3 C 5.67188 3 7 4.34375 7 6 C 7 7.67188 5.67188 9 4 9 C 2.32813 9 1 7.67188 1 6 C 1 4.34375 2.32813 3 4 3 M 0 16.6719 C 0 13.7031 2.375 11.3281 5.32813 11.3281 C 5.875 11.3281 6.375 11.4219 6.875 11.5469 C 5.5 13.0781 4.67188 15.125 4.67188 17.3281 L 4.67188 18 C 4.67188 18.4531 4.75 18.9219 4.95313 19.3281 L 1.32813 19.3281 C 0.578125 19.3281 0 18.75 0 18 L 0 16.6719 M 21.7031 19.3281 C 21.9063 18.9219 22 18.4531 22 18 L 22 17.3281 C 22 15.125 21.1563 13.0781 19.7813 11.5469 C 20.2813 11.4219 20.7813 11.3281 21.3281 11.3281 C 24.2813 11.3281 26.6563 13.7031 26.6563 16.6719 L 26.6563 18 C 26.6563 18.75 26.0781 19.3281 25.3281 19.3281 L 21.7031 19.3281 M 19.6563 6 C 19.6563 4.34375 21 3 22.6563 3 C 24.3281 3 25.6563 4.34375 25.6563 6 C 25.6563 7.67188 24.3281 9 22.6563 9 C 21 9 19.6563 7.67188 19.6563 6 M 6.67188 17.3281 C 6.67188 13.6719 9.67188 10.6719 13.3281 10.6719 C 17 10.6719 20 13.6719 20 17.3281 L 20 18 C 20 18.75 19.4063 19.3281 18.6563 19.3281 L 8 19.3281 C 7.25 19.3281 6.67188 18.75 6.67188 18 L 6.67188 17.3281"/></svg>
