<?xml version="1.0" encoding="UTF-8" standalone="yes"?><svg xmlns="http://www.w3.org/2000/svg" xmlns:xlink="http://www.w3.org/1999/xlink" version="1.2" baseProfile="tiny" x="0" y="0" width="15" height="16" viewBox="0 0 15.5 16"><defs/><path fill="#6796ff" d="M 3.5 1.75 C 3.5 0.78125 4.28125 0 5.25 0 L 6 0 C 6.5625 0 7 0.4375 7 1 L 7 15 C 7 15.5625 6.5625 16 6 16 L 5 16 C 4.0625 16 3.28125 15.375 3.0625 14.5 C 3.03125 14.5 3.03125 14.5 3 14.5 C 1.625 14.5 0.5 13.375 0.5 12 C 0.5 11.4375 0.6875 10.9063 1 10.5 C 0.40625 10.0313 0 9.3125 0 8.5 C 0 7.53125 0.5625 6.6875 1.34375 6.28125 C 1.125 5.90625 1 5.46875 1 5 C 1 3.625 2.125 2.5 3.5 2.5 L 3.5 1.75 M 12 1.75 L 12 2.5 C 13.375 2.5 14.5 3.625 14.5 5 C 14.5 5.46875 14.375 5.90625 14.1563 6.28125 C 14.9688 6.6875 15.5 7.53125 15.5 8.5 C 15.5 9.3125 15.0938 10.0313 14.5 10.5 C 14.8125 10.9063 15 11.4375 15 12 C 15 13.375 13.875 14.5 12.5 14.5 C 12.4688 14.5 12.4688 14.5 12.4375 14.5 C 12.2188 15.375 11.4375 16 10.5 16 L 9.5 16 C 8.9375 16 8.5 15.5625 8.5 15 L 8.5 1 C 8.5 0.4375 8.9375 0 9.5 0 L 10.25 0 C 11.2188 0 12 0.78125 12 1.75"/></svg>
