<?xml version="1.0" encoding="UTF-8" standalone="yes"?><svg xmlns="http://www.w3.org/2000/svg" xmlns:xlink="http://www.w3.org/1999/xlink" version="1.2" baseProfile="tiny" x="0" y="0" width="12" height="16" viewBox="0 0 12 16"><defs/><path fill="#6796ff" d="M 8 0 C 8.75 0 9.375 0.40625 9.71875 1 L 10 1 C 11.0938 1 12 1.90625 12 3 L 12 14 C 12 15.0938 11.0938 16 10 16 L 2 16 C 0.90625 16 0 15.0938 0 14 L 0 3 C 0 1.90625 0.90625 1 2 1 L 2.28125 1 C 2.625 0.40625 3.25 0 4 0 L 8 0 M 8.84375 6.65625 C 8.5 6.40625 8.03125 6.46875 7.78125 6.8125 L 5.125 10.5 L 4.28125 9.625 C 4 9.34375 3.53125 9.3125 3.21875 9.625 C 2.9375 9.90625 2.9375 10.375 3.21875 10.6875 L 4.65625 12.1875 C 4.8125 12.3438 5.03125 12.4063 5.25 12.4063 C 5.46875 12.375 5.6875 12.2813 5.8125 12.0938 L 9 7.6875 C 9.25 7.34375 9.1875 6.875 8.84375 6.65625 M 4.25 2 C 3.84375 2 3.5 2.34375 3.5 2.75 C 3.5 3.15625 3.84375 3.5 4.25 3.5 L 7.75 3.5 C 8.15625 3.5 8.5 3.15625 8.5 2.75 C 8.5 2.34375 8.15625 2 7.75 2 L 4.25 2"/></svg>
