<?xml version="1.0" encoding="UTF-8" standalone="yes"?><svg xmlns="http://www.w3.org/2000/svg" xmlns:xlink="http://www.w3.org/1999/xlink" version="1.2" baseProfile="tiny" x="0" y="0" width="31" height="17" viewBox="0 0 31.6563 17.4063"><defs/><path fill="#6796ff" d="M 9.75 3.95313 C 9.59375 3.95313 9.40625 3.8125 9.34375 3.60938 C 8.85938 1.53125 6.96875 0 4.75 0 C 2.125 0 0 2.125 0 4.75 C 0 6.1875 0.640625 7.46875 1.625 8.35938 C 1.875 8.5 1.875 8.90625 1.625 9.04688 C 0.640625 9.9375 0 11.2344 0 12.6563 C 0 15.2813 2.125 17.4063 4.75 17.4063 C 6.96875 17.4063 8.85938 15.875 9.34375 13.7969 C 9.40625 13.6094 9.59375 13.4531 9.75 13.4531 L 21.9219 13.4531 C 22.0625 13.4531 22.2656 13.6094 22.3125 13.7969 C 22.8125 15.875 24.6875 17.4063 26.9063 17.4063 C 29.5313 17.4063 31.6563 15.2813 31.6563 12.6563 C 31.6563 11.2344 31.0156 9.9375 30.0313 9.04688 C 29.7813 8.90625 29.7813 8.5 30.0313 8.35938 C 31.0156 7.46875 31.6563 6.1875 31.6563 4.75 C 31.6563 2.125 29.5313 0 26.9063 0 C 24.6875 0 22.8125 1.53125 22.3125 3.60938 C 22.2656 3.8125 22.0625 3.95313 21.9219 3.95313 L 9.75 3.95313 Z"/></svg>
