<?xml version="1.0" encoding="UTF-8" standalone="yes"?><svg xmlns="http://www.w3.org/2000/svg" xmlns:xlink="http://www.w3.org/1999/xlink" version="1.2" baseProfile="tiny" x="0" y="0" width="19" height="25" viewBox="0 0 19 25.3281"><defs/><path fill="#6796ff" d="M 0 3.15625 C 0 1.42188 1.4375 0 3.17188 0 L 10.5938 0 C 11.4219 0 12.2188 0.34375 12.8125 0.9375 L 18.0625 6.17188 C 18.6563 6.76563 19 7.60938 19 8.45313 L 19 22.1563 C 19 23.8906 17.5625 25.3281 15.8281 25.3281 L 3.17188 25.3281 C 1.4375 25.3281 0 23.8906 0 22.1563 L 0 3.15625 M 10.2969 2.90625 L 10.2969 7.51563 C 10.2969 8.15625 10.8281 8.70313 11.4844 8.70313 L 16.125 8.70313 L 10.2969 2.90625 M 3.17188 4.34375 C 3.17188 4.98438 3.70313 5.53125 4.35938 5.53125 L 6.73438 5.53125 C 7.375 5.53125 7.92188 4.98438 7.92188 4.34375 C 7.92188 3.70313 7.375 3.15625 6.73438 3.15625 L 4.35938 3.15625 C 3.70313 3.15625 3.17188 3.70313 3.17188 4.34375 M 3.17188 9.09375 C 3.17188 9.73438 3.70313 10.2813 4.35938 10.2813 L 6.73438 10.2813 C 7.375 10.2813 7.92188 9.73438 7.92188 9.09375 C 7.92188 8.45313 7.375 7.90625 6.73438 7.90625 L 4.35938 7.90625 C 3.70313 7.90625 3.17188 8.45313 3.17188 9.09375 M 8.70313 12.8594 L 8.70313 13.0469 C 7.26563 13.0469 6.14063 14.2344 6.14063 15.6719 C 6.14063 16.9063 7.07813 18 8.3125 18.2031 L 10.3906 18.5469 C 10.6875 18.5938 10.8906 18.8906 10.8906 19.1875 C 10.8906 19.5313 10.5938 19.7813 10.2969 19.7813 L 7.51563 19.7813 C 6.96875 19.7813 6.53125 20.2344 6.53125 20.7656 C 6.53125 21.3125 6.96875 21.7656 7.51563 21.7656 L 8.70313 21.7656 L 8.70313 21.9531 C 8.70313 22.5 9.15625 22.9531 9.70313 22.9531 C 10.2344 22.9531 10.6875 22.5 10.6875 21.9531 L 10.6875 21.7188 C 11.9219 21.5156 12.8594 20.4688 12.8594 19.1875 C 12.8594 17.9063 11.9688 16.8125 10.6875 16.6094 L 8.60938 16.2656 C 8.3125 16.2188 8.10938 15.9688 8.10938 15.625 C 8.10938 15.3281 8.40625 15.0313 8.75 15.0313 L 11.0781 15.0313 C 11.625 15.0313 12.0781 14.5938 12.0781 14.0469 C 12.0781 13.5 11.625 13.0469 11.0781 13.0469 L 10.6875 13.0469 L 10.6875 12.8594 C 10.6875 12.3125 10.2344 11.8594 9.70313 11.8594 C 9.15625 11.8594 8.70313 12.3125 8.70313 12.8594"/></svg>
