<?xml version="1.0" encoding="UTF-8" standalone="yes"?><svg xmlns="http://www.w3.org/2000/svg" xmlns:xlink="http://www.w3.org/1999/xlink" version="1.2" baseProfile="tiny" x="0" y="0" width="20" height="24" viewBox="0 0 20.5781 24.9375"><defs/><path fill="#6796ff" d="M 10.2813 0 C 7.01563 0 4.34375 2.67188 4.34375 5.9375 C 4.34375 9.20313 7.01563 11.875 10.2813 11.875 C 13.5469 11.875 16.2188 9.20313 16.2188 5.9375 C 16.2188 2.67188 13.5469 0 10.2813 0 M 13.25 15.4844 C 13 15.4375 12.7031 15.4375 12.4063 15.4375 L 8.15625 15.4375 C 7.85938 15.4375 7.5625 15.4375 7.3125 15.4844 L 7.3125 18.7969 C 8.10938 19.1875 8.70313 20.0313 8.70313 20.9688 C 8.70313 22.2656 7.60938 23.3438 6.32813 23.3438 C 4.98438 23.3438 3.95313 22.2656 3.95313 20.9688 C 3.95313 20.0313 4.5 19.1875 5.34375 18.7969 L 5.34375 15.9219 C 2.21875 17.0625 0 20.0781 0 23.5938 C 0 24.3438 0.59375 24.9375 1.32813 24.9375 L 19.2344 24.9375 C 19.9844 24.9375 20.5781 24.3438 20.5781 23.5938 C 20.5781 20.0781 18.3438 17.0625 15.2344 15.9219 L 15.2344 17.7656 C 16.375 18.2031 17.2031 19.2969 17.2031 20.5781 L 17.2031 22.1563 C 17.2031 22.7031 16.7656 23.1563 16.2188 23.1563 C 15.6719 23.1563 15.2344 22.7031 15.2344 22.1563 L 15.2344 20.5781 C 15.2344 20.0313 14.7813 19.5938 14.2344 19.5938 C 13.7031 19.5938 13.25 20.0313 13.25 20.5781 L 13.25 22.1563 C 13.25 22.7031 12.8125 23.1563 12.2656 23.1563 C 11.7188 23.1563 11.2813 22.7031 11.2813 22.1563 L 11.2813 20.5781 C 11.2813 19.2969 12.1094 18.2031 13.25 17.7656 L 13.25 15.4844"/></svg>
