<?xml version="1.0" encoding="UTF-8" standalone="yes"?><svg xmlns="http://www.w3.org/2000/svg" xmlns:xlink="http://www.w3.org/1999/xlink" version="1.2" baseProfile="tiny" x="0" y="0" width="13" height="16" viewBox="0 0 13.5027 16.7746"><defs/><path fill="#6796ff" d="M 6.7357 4.77459 L 4.1107 0.368344 C 3.89195 0.0245943 3.4857 -0.100406 3.1107 0.0870943 L 0.4232 1.43084 C 0.0482 1.61834 -0.10805 2.08709 0.07945 2.46209 L 2.26695 6.80584 C 1.32945 7.86834 0.7357 9.24334 0.7357 10.7746 C 0.7357 14.0871 3.4232 16.7746 6.7357 16.7746 C 10.0482 16.7746 12.7357 14.0871 12.7357 10.7746 C 12.7357 9.24334 12.1732 7.86834 11.2357 6.80584 L 13.4232 2.46209 C 13.6107 2.08709 13.4545 1.61834 13.0795 1.43084 L 10.3607 0.0870943 C 10.017 -0.100406 9.57945 0.0245943 9.39195 0.368344 L 6.7357 4.77459 M 7.70445 9.24334 C 7.76695 9.30584 7.82945 9.36834 7.9232 9.39959 L 9.4857 9.61834 C 9.7357 9.64959 9.82945 9.93084 9.64195 10.1183 L 8.51695 11.2121 C 8.45445 11.3058 8.4232 11.3996 8.4232 11.4933 L 8.70445 13.0558 C 8.7357 13.2746 8.4857 13.4621 8.26695 13.3371 L 6.89195 12.6183 C 6.7982 12.5558 6.70445 12.5558 6.6107 12.6183 L 5.20445 13.3371 C 4.9857 13.4621 4.7357 13.2746 4.7982 13.0558 L 5.0482 11.4933 C 5.07945 11.3996 5.0482 11.3058 4.95445 11.2121 L 3.82945 10.1183 C 3.6732 9.96209 3.76695 9.64959 3.9857 9.61834 L 5.5482 9.39959 C 5.64195 9.36834 5.7357 9.30584 5.76695 9.24334 L 6.4857 7.80584 C 6.57945 7.58709 6.89195 7.58709 7.01695 7.80584 L 7.70445 9.24334"/></svg>
