<?xml version="1.0" encoding="UTF-8" standalone="yes"?><svg xmlns="http://www.w3.org/2000/svg" xmlns:xlink="http://www.w3.org/1999/xlink" version="1.2" baseProfile="tiny" x="0" y="0" width="18" height="14" viewBox="0 0 18 14"><defs/><path fill="#6796ff" d="M 8.40625 1.65625 L 4.75 5.71875 C 4.625 5.875 4.625 6.125 4.78125 6.28125 C 5.71875 7.21875 7.28125 7.21875 8.21875 6.28125 L 9.21875 5.28125 C 9.34375 5.15625 9.53125 5.0625 9.6875 5.0625 C 9.90625 5.03125 10.125 5.125 10.2813 5.28125 L 15.8125 10.75 L 18 9 L 18 0 L 14.5 2 L 13.75 1.5 C 13.25 1.1875 12.6875 1 12.0938 1 L 9.90625 1 C 9.84375 1 9.8125 1 9.78125 1 C 9.25 1.03125 8.75 1.28125 8.40625 1.65625 M 3.65625 4.71875 L 6.96875 1 L 5.75 1 C 4.9375 1 4.1875 1.3125 3.625 1.875 L 3.5 2 L 0 0 L 0 9 L 4.875 13.0625 C 5.59375 13.6875 6.5 14 7.4375 14 L 7.9375 14 L 7.71875 13.7813 C 7.4375 13.5 7.4375 13 7.71875 12.7188 C 8 12.4375 8.5 12.4375 8.78125 12.7188 L 10.0625 14 L 10.3438 14 C 10.9375 14 11.5313 13.875 12.0625 13.625 L 11.2188 12.7813 C 10.9375 12.5 10.9375 12 11.2188 11.7188 C 11.5 11.4375 12 11.4375 12.2813 11.7188 L 13.2813 12.7188 L 13.8125 12.1875 C 14.0938 11.9063 14.1875 11.5 14.0625 11.1563 L 9.75 6.875 L 9.28125 7.34375 C 7.75 8.875 5.25 8.875 3.71875 7.34375 C 3 6.625 2.96875 5.46875 3.65625 4.71875"/></svg>
