<?xml version="1.0" encoding="UTF-8" standalone="yes"?><svg xmlns="http://www.w3.org/2000/svg" xmlns:xlink="http://www.w3.org/1999/xlink" version="1.2" baseProfile="tiny" x="0" y="0" width="36" height="20" viewBox="0 0 36 20"><defs/><path fill="#6796ff" d="M 29 20 L 32 20 C 34.1875 20 36 18.1875 36 16 L 36 4 C 36 1.8125 34.1875 0 32 0 L 29 0 L 29 20 M 26 0 L 10 0 L 10 20 L 26 20 L 26 0 M 4 0 C 1.8125 0 0 1.8125 0 4 L 0 16 C 0 18.1875 1.8125 20 4 20 L 7 20 L 7 0 L 4 0 M 13.5 7 C 13.5 6.1875 14.1875 5.5 15 5.5 C 15.8125 5.5 16.5 6.1875 16.5 7 C 16.5 7.8125 15.8125 8.5 15 8.5 C 14.1875 8.5 13.5 7.8125 13.5 7 M 21 5.5 C 21.8125 5.5 22.5 6.1875 22.5 7 C 22.5 7.8125 21.8125 8.5 21 8.5 C 20.1875 8.5 19.5 7.8125 19.5 7 C 19.5 6.1875 20.1875 5.5 21 5.5 M 13.5 13 C 13.5 12.1875 14.1875 11.5 15 11.5 C 15.8125 11.5 16.5 12.1875 16.5 13 C 16.5 13.8125 15.8125 14.5 15 14.5 C 14.1875 14.5 13.5 13.8125 13.5 13 M 21 11.5 C 21.8125 11.5 22.5 12.1875 22.5 13 C 22.5 13.8125 21.8125 14.5 21 14.5 C 20.1875 14.5 19.5 13.8125 19.5 13 C 19.5 12.1875 20.1875 11.5 21 11.5"/></svg>
