<?xml version="1.0" encoding="UTF-8" standalone="yes"?><svg xmlns="http://www.w3.org/2000/svg" xmlns:xlink="http://www.w3.org/1999/xlink" version="1.2" baseProfile="tiny" x="0" y="0" width="30" height="25" viewBox="0 0 30.855 25.3281"><defs/><path fill="#6796ff" d="M 13.0509 0 C 11.7696 0 10.6759 1.07813 10.6759 2.375 L 10.6759 3.15625 L 9.8946 3.15625 C 7.7071 3.15625 5.92585 4.9375 5.92585 7.125 L 5.92585 12.5156 L 4.84773 12.9063 C 4.1446 13.2031 3.75398 14.0469 4.00398 14.7813 C 4.48835 16.3125 5.3321 17.7031 6.37898 18.8906 C 7.36335 18.4531 8.41023 18.2031 9.48835 18.2031 C 11.129 18.2031 12.754 18.6875 14.1446 19.7344 L 14.2384 19.8281 L 14.2384 9.20313 L 9.09773 11.2188 L 9.09773 7.125 C 9.09773 6.67188 9.44148 6.32813 9.8946 6.32813 L 20.9727 6.32813 C 21.4102 6.32813 21.754 6.67188 21.754 7.125 L 21.754 11.2188 L 16.6134 9.20313 L 16.6134 19.8281 L 16.7071 19.7344 C 18.0509 18.75 19.6759 18.2031 21.2696 18.2031 C 22.3477 18.2031 23.4884 18.4531 24.4884 18.8906 C 25.5196 17.7031 26.3634 16.3125 26.8477 14.7813 C 27.0977 14.0469 26.7071 13.2031 26.0196 12.9063 L 24.9259 12.5156 L 24.9259 7.125 C 24.9259 4.9375 23.1446 3.15625 20.9727 3.15625 L 20.1759 3.15625 L 20.1759 2.375 C 20.1759 1.07813 19.1446 0 17.8009 0 L 13.0509 0 M 19.5352 23.5469 C 20.629 22.75 22.004 22.75 23.0977 23.5469 C 24.0352 24.2813 25.1759 24.9219 26.4102 25.1719 C 27.6915 25.4688 29.0821 25.2188 30.4102 24.2344 C 30.9102 23.8438 31.004 23.0938 30.6134 22.5938 C 30.2227 22.0625 29.4727 21.9531 28.9884 22.3594 C 28.2384 22.8906 27.5509 23 26.8477 22.8438 C 26.1134 22.7031 25.3165 22.25 24.5352 21.6563 C 22.5977 20.2344 20.0352 20.2344 18.1446 21.6563 C 16.9571 22.5469 16.1134 22.9531 15.4259 22.9531 C 14.7384 22.9531 13.9415 22.5469 12.754 21.6563 C 10.8321 20.2344 8.25398 20.2344 6.37898 21.6563 C 5.28523 22.4531 4.30085 22.9531 3.4571 22.8906 C 2.9571 22.8906 2.47273 22.75 1.87898 22.3594 C 1.37898 21.9531 0.62898 22.0625 0.238355 22.5938 C -0.15227 23.0938 -0.0585201 23.8438 0.488355 24.2344 C 1.42585 24.9688 2.41023 25.2656 3.41023 25.2656 C 5.0821 25.3281 6.62898 24.4375 7.81648 23.5469 C 8.84773 22.75 10.2384 22.75 11.3165 23.5469 C 12.504 24.4375 13.8946 25.3281 15.4259 25.3281 C 16.9571 25.3281 18.3477 24.4375 19.5821 23.5469 L 19.5352 23.5469"/></svg>
