<?xml version="1.0" encoding="UTF-8" standalone="yes"?><svg xmlns="http://www.w3.org/2000/svg" xmlns:xlink="http://www.w3.org/1999/xlink" version="1.2" baseProfile="tiny" x="0" y="0" width="25" height="22" viewBox="0 0 25.3281 22.1563"><defs/><path fill="#6796ff" d="M 3.17188 1.57813 C 3.17188 0.6875 2.46875 0 1.57813 0 C 0.6875 0 0 0.6875 0 1.57813 L 0 18.2031 C 0 20.375 1.78125 22.1563 3.95313 22.1563 L 23.75 22.1563 C 24.6406 22.1563 25.3281 21.4688 25.3281 20.5781 C 25.3281 19.6875 24.6406 19 23.75 19 L 3.95313 19 C 3.51563 19 3.17188 18.6563 3.17188 18.2031 L 3.17188 1.57813 M 23.2969 5.89063 C 23.8906 5.25 23.8906 4.25 23.2969 3.60938 C 22.6563 3.01563 21.6719 3.01563 21.0313 3.60938 L 15.8281 8.85938 L 13.0156 5.98438 C 12.375 5.39063 11.375 5.39063 10.7344 5.98438 L 5.98438 10.7344 C 5.39063 11.375 5.39063 12.3594 5.98438 13.0156 C 6.625 13.6094 7.625 13.6094 8.26563 13.0156 L 11.875 9.34375 L 14.6875 12.2188 C 15.3281 12.8125 16.3281 12.8125 16.9688 12.2188 L 23.2969 5.89063"/></svg>
