<?xml version="1.0" encoding="UTF-8" standalone="yes"?><svg xmlns="http://www.w3.org/2000/svg" xmlns:xlink="http://www.w3.org/1999/xlink" version="1.2" baseProfile="tiny" x="0" y="0" width="19" height="25" viewBox="0 0 19 25.3281"><defs/><path fill="#6796ff" d="M 0 3.15625 C 0 1.42188 1.4375 0 3.17188 0 L 10.5938 0 C 11.4219 0 12.2188 0.34375 12.8125 0.9375 L 18.0625 6.17188 C 18.6563 6.76563 19 7.60938 19 8.45313 L 19 22.1563 C 19 23.8906 17.5625 25.3281 15.8281 25.3281 L 3.17188 25.3281 C 1.4375 25.3281 0 23.8906 0 22.1563 L 0 3.15625 M 10.2969 2.90625 L 10.2969 7.51563 C 10.2969 8.15625 10.8281 8.70313 11.4844 8.70313 L 16.125 8.70313 L 10.2969 2.90625 M 7.92188 13.8438 L 7.92188 15.8281 L 5.9375 15.8281 C 5.48438 15.8281 5.14063 16.1719 5.14063 16.6094 L 5.14063 18.2031 C 5.14063 18.6406 5.48438 18.9844 5.9375 18.9844 L 7.92188 18.9844 L 7.92188 20.9688 C 7.92188 21.4219 8.26563 21.7656 8.70313 21.7656 L 10.2969 21.7656 C 10.7344 21.7656 11.0781 21.4219 11.0781 20.9688 L 11.0781 18.9844 L 13.0625 18.9844 C 13.5 18.9844 13.8438 18.6406 13.8438 18.2031 L 13.8438 16.6094 C 13.8438 16.1719 13.5 15.8281 13.0625 15.8281 L 11.0781 15.8281 L 11.0781 13.8438 C 11.0781 13.4063 10.7344 13.0469 10.2969 13.0469 L 8.70313 13.0469 C 8.26563 13.0469 7.92188 13.4063 7.92188 13.8438"/></svg>
