<?xml version="1.0" encoding="UTF-8" standalone="yes"?><svg xmlns="http://www.w3.org/2000/svg" xmlns:xlink="http://www.w3.org/1999/xlink" version="1.2" baseProfile="tiny" x="0" y="0" width="21" height="21" viewBox="0 0 21.3281 21.3281"><defs/><path fill="#6796ff" d="M 4 14.6563 C 4 16.1094 5.20313 17.3281 6.67188 17.3281 L 14.25 17.3281 C 14.9531 17.3281 15.625 17.0313 16.125 16.5313 L 20.5313 12.1094 C 21.0313 11.6094 21.3281 10.9063 21.3281 10.2031 L 21.3281 2.65625 C 21.3281 1.20313 20.125 0 18.6563 0 L 6.67188 0 C 5.20313 0 4 1.20313 4 2.65625 L 4 14.6563 M 12 4.65625 L 13.3281 4.65625 C 13.7031 4.65625 14 4.95313 14 5.32813 L 14 7.32813 L 16 7.32813 C 16.375 7.32813 16.6563 7.625 16.6563 7.98438 L 16.6563 9.32813 C 16.6563 9.70313 16.375 9.98438 16 9.98438 L 14 9.98438 L 14 11.9844 C 14 12.3594 13.7031 12.6563 13.3281 12.6563 L 12 12.6563 C 11.625 12.6563 11.3281 12.3594 11.3281 11.9844 L 11.3281 9.98438 L 9.32813 9.98438 C 8.95313 9.98438 8.67188 9.70313 8.67188 9.32813 L 8.67188 7.98438 C 8.67188 7.625 8.95313 7.32813 9.32813 7.32813 L 11.3281 7.32813 L 11.3281 5.32813 C 11.3281 4.95313 11.625 4.65625 12 4.65625 M 2 5 C 2 4.45313 1.54688 4 1 4 C 0.453125 4 0 4.45313 0 5 L 0 18.6563 C 0 20.1094 1.20313 21.3281 2.67188 21.3281 L 13.6563 21.3281 C 14.2031 21.3281 14.6563 20.8594 14.6563 20.3281 C 14.6563 19.7813 14.2031 19.3281 13.6563 19.3281 L 2.67188 19.3281 C 2.29688 19.3281 2 19.0313 2 18.6563 L 2 5"/></svg>
