<?xml version="1.0" encoding="UTF-8" standalone="yes"?><svg xmlns="http://www.w3.org/2000/svg" xmlns:xlink="http://www.w3.org/1999/xlink" version="1.2" baseProfile="tiny" x="0" y="0" width="21" height="21" viewBox="0 0 21.3281 21.3363"><defs/><path fill="#6796ff" d="M 20 7.99251 L 20.3281 7.99251 C 20.875 7.99251 21.3281 7.53939 21.3281 7.00814 L 21.3281 1.00814 C 21.3281 0.586265 21.0781 0.25814 20.7031 0.0862646 C 20.3281 -0.0856104 19.9063 0.00813962 19.625 0.28939 L 17.4531 2.46126 C 15.625 0.91439 13.25 0.00813962 10.6719 0.00813962 C 5.29688 0.00813962 0.828125 3.96126 0.125 9.16439 C 0 9.86751 0.5 10.5394 1.25 10.6644 C 1.95313 10.7425 2.625 10.2425 2.75 9.53939 C 3.29688 5.66439 6.625 2.66439 10.6719 2.66439 C 12.5 2.66439 14.2031 3.28939 15.5781 4.33626 L 13.625 6.28939 C 13.3281 6.58626 13.25 7.00814 13.4063 7.38314 C 13.5781 7.75814 13.9063 7.99251 14.3281 7.99251 L 20 7.99251 M 21.25 12.2113 C 21.3281 11.4613 20.8281 10.7894 20.0781 10.6644 C 19.375 10.5863 18.7031 11.0863 18.5781 11.7894 C 18.0313 15.6644 14.7031 18.6644 10.6719 18.6644 C 8.82813 18.6644 7.125 18.0394 5.75 16.9925 L 7.70313 15.0394 C 8 14.7425 8.07813 14.3363 7.92188 13.9613 C 7.79688 13.5863 7.42188 13.3363 7 13.3363 L 1 13.3363 C 0.453125 13.3363 0 13.7894 0 14.3363 L 0 20.3363 C 0 20.7425 0.25 21.1175 0.625 21.2425 C 1 21.4144 1.42188 21.3363 1.70313 21.0394 L 3.875 18.8675 C 5.70313 20.4144 8.07813 21.3363 10.6719 21.3363 C 16.0313 21.3363 20.5 17.3675 21.2031 12.2113 L 21.25 12.2113"/></svg>
