<?xml version="1.0" encoding="UTF-8" standalone="yes"?><svg xmlns="http://www.w3.org/2000/svg" xmlns:xlink="http://www.w3.org/1999/xlink" version="1.2" baseProfile="tiny" x="0" y="0" width="28" height="32" viewBox="0 0 28 32"><defs/><path fill="#6796ff" d="M 9.0625 0.375 L 14 2 L 18.9375 0.375 C 19.625 0.125 20.375 0 21.125 0 C 24.9375 0 28 3.0625 28 6.875 L 28 11.1875 C 28 13 27.4375 14.8125 26.3125 16.25 L 26.25 16.375 C 25.4375 17.4375 24.875 18.6875 24.6875 20 L 23.375 29.5 C 23.125 30.9375 21.9375 32 20.5 32 C 19.0625 32 17.8125 31 17.625 29.5625 L 16.3125 22 C 16.125 20.8125 15.1875 20 14 20 C 12.875 20 11.875 20.8125 11.6875 22 L 10.4375 29.5625 C 10.1875 31 8.9375 32 7.5625 32 C 6.0625 32 4.875 30.9375 4.625 29.5 L 3.3125 20.0625 C 3.125 18.6875 2.5625 17.4375 1.75 16.375 L 1.6875 16.25 C 0.625 14.8125 0 13 0 11.1875 L 0 6.875 C 0 3.0625 3.0625 0 6.875 0 C 7.625 0 8.375 0.125 9.0625 0.375 Z"/></svg>
