<?xml version="1.0" encoding="UTF-8" standalone="yes"?><svg xmlns="http://www.w3.org/2000/svg" xmlns:xlink="http://www.w3.org/1999/xlink" version="1.2" baseProfile="tiny" x="0" y="0" width="16" height="14" viewBox="0 0 16 14"><defs/><path fill="#6796ff" d="M 8 2.375 L 7.53125 1.71875 C 6.75 0.65625 5.5 0 4.15625 0 C 1.875 0 0 1.875 0 4.15625 L 0 4.25 C 0 4.96875 0.1875 5.75 0.53125 6.5 L 3.84375 6.5 C 3.9375 6.5 4.03125 6.4375 4.0625 6.34375 L 5.0625 3.96875 C 5.1875 3.6875 5.4375 3.5 5.75 3.5 C 6.03125 3.5 6.3125 3.65625 6.4375 3.9375 L 8.03125 7.5 L 9.34375 4.90625 C 9.46875 4.65625 9.71875 4.5 10 4.5 C 10.2813 4.5 10.5313 4.65625 10.6875 4.90625 L 11.4063 6.375 C 11.4375 6.4375 11.5313 6.5 11.625 6.5 L 15.5 6.5 C 15.8125 5.75 16 4.96875 16 4.25 L 16 4.15625 C 16 1.875 14.125 0 11.8438 0 C 10.5 0 9.25 0.65625 8.46875 1.71875 L 8 2.375 M 14.6875 8 L 11.625 8 C 10.9688 8 10.3438 7.625 10.0625 7.03125 L 10 6.9375 L 8.6875 9.59375 C 8.53125 9.84375 8.28125 10 8 10 C 7.6875 10 7.4375 9.8125 7.3125 9.5625 L 5.78125 6.125 L 5.4375 6.9375 C 5.1875 7.59375 4.53125 8 3.84375 8 L 1.3125 8 C 2.8125 10.3125 5.15625 12.4375 6.65625 13.5625 C 7.03125 13.8438 7.5 14 8 14 C 8.46875 14 8.96875 13.875 9.34375 13.5625 C 10.8438 12.4375 13.1875 10.3125 14.6875 8"/></svg>
