<?xml version="1.0" encoding="UTF-8" standalone="yes"?><svg xmlns="http://www.w3.org/2000/svg" xmlns:xlink="http://www.w3.org/1999/xlink" version="1.2" baseProfile="tiny" x="0" y="0" width="17" height="21" viewBox="0 0 17.3281 21"><defs/><path fill="#6796ff" d="M 8.65625 0 C 5.90625 0 3.65625 2.25 3.65625 5 C 3.65625 7.75 5.90625 10 8.65625 10 C 11.4063 10 13.6563 7.75 13.6563 5 C 13.6563 2.25 11.4063 0 8.65625 0 M 11.1563 13.0313 C 10.9531 13 10.7031 13 10.4531 13 L 6.875 13 C 6.625 13 6.375 13 6.15625 13.0313 L 6.15625 15.8281 C 6.82813 16.1563 7.32813 16.875 7.32813 17.6563 C 7.32813 18.75 6.40625 19.6563 5.32813 19.6563 C 4.20313 19.6563 3.32813 18.75 3.32813 17.6563 C 3.32813 16.875 3.78125 16.1563 4.5 15.8281 L 4.5 13.4063 C 1.875 14.375 0 16.9063 0 19.875 C 0 20.5 0.5 21 1.125 21 L 16.2031 21 C 16.8281 21 17.3281 20.5 17.3281 19.875 C 17.3281 16.9063 15.4531 14.375 12.8281 13.4063 L 12.8281 14.9531 C 13.7813 15.3281 14.4844 16.25 14.4844 17.3281 L 14.4844 18.6563 C 14.4844 19.125 14.1094 19.5 13.6563 19.5 C 13.2031 19.5 12.8281 19.125 12.8281 18.6563 L 12.8281 17.3281 C 12.8281 16.875 12.4531 16.5 11.9844 16.5 C 11.5313 16.5 11.1563 16.875 11.1563 17.3281 L 11.1563 18.6563 C 11.1563 19.125 10.7813 19.5 10.3281 19.5 C 9.875 19.5 9.5 19.125 9.5 18.6563 L 9.5 17.3281 C 9.5 16.25 10.2031 15.3281 11.1563 14.9531 L 11.1563 13.0313"/></svg>
