<?xml version="1.0" encoding="UTF-8" standalone="yes"?><svg xmlns="http://www.w3.org/2000/svg" xmlns:xlink="http://www.w3.org/1999/xlink" version="1.2" baseProfile="tiny" x="0" y="0" width="25" height="25" viewBox="0 0 25.3281 25.3281"><defs/><path fill="#6796ff" d="M 12.6719 25.3281 C 19.6406 25.3281 25.3281 19.6406 25.3281 12.6563 C 25.3281 5.6875 19.6406 0 12.6719 0 C 5.6875 0 0 5.6875 0 12.6563 C 0 19.6406 5.6875 25.3281 12.6719 25.3281 M 11.0781 7.90625 C 11.0781 7.01563 11.7813 6.32813 12.6719 6.32813 C 13.5469 6.32813 14.25 7.01563 14.25 7.90625 C 14.25 8.79688 13.5469 9.48438 12.6719 9.48438 C 11.7813 9.48438 11.0781 8.79688 11.0781 7.90625 M 10.6875 11.0781 L 13.0625 11.0781 C 13.7031 11.0781 14.25 11.625 14.25 12.2656 L 14.25 16.6094 L 14.6406 16.6094 C 15.2813 16.6094 15.8281 17.1563 15.8281 17.7969 C 15.8281 18.4531 15.2813 18.9844 14.6406 18.9844 L 10.6875 18.9844 C 10.0469 18.9844 9.5 18.4531 9.5 17.7969 C 9.5 17.1563 10.0469 16.6094 10.6875 16.6094 L 11.875 16.6094 L 11.875 13.4531 L 10.6875 13.4531 C 10.0469 13.4531 9.5 12.9063 9.5 12.2656 C 9.5 11.625 10.0469 11.0781 10.6875 11.0781"/></svg>
