<?xml version="1.0" encoding="UTF-8" standalone="yes"?><svg xmlns="http://www.w3.org/2000/svg" xmlns:xlink="http://www.w3.org/1999/xlink" version="1.2" baseProfile="tiny" x="0" y="0" width="25" height="25" viewBox="0 0 25.1875 25.3281"><defs/><path fill="#6796ff" d="M 17.3125 13.8438 L 7.875 13.8438 C 8.01563 17.0625 8.71875 19.9844 9.75 22.1094 C 10.2969 23.3438 10.8906 24.1875 11.4844 24.7344 C 12.0313 25.2188 12.4219 25.3281 12.625 25.3281 C 12.8125 25.3281 13.1563 25.2188 13.7031 24.7344 C 14.2969 24.1875 14.8906 23.3438 15.4844 22.1094 C 16.4844 19.9844 17.1719 17.0625 17.3125 13.8438 M 7.875 11.4688 L 17.3125 11.4688 C 17.1719 8.3125 16.4844 5.34375 15.4375 3.20313 C 14.8906 1.96875 14.2969 1.125 13.7031 0.59375 C 13.1563 0.09375 12.7656 0 12.5781 0 C 12.375 0 12.0313 0.09375 11.4844 0.59375 C 10.8906 1.125 10.2969 1.96875 9.70313 3.20313 C 8.71875 5.34375 8.01563 8.3125 7.875 11.4688 M 5.5 11.4688 C 5.64063 7.21875 6.78125 3.3125 8.35938 0.734375 C 3.8125 2.3125 0.453125 6.46875 0 11.4688 L 5.5 11.4688 M 0 13.8438 C 0.453125 18.8438 3.8125 23 8.35938 24.5781 C 6.78125 22.0156 5.64063 18.0938 5.5 13.8438 L 0 13.8438 M 19.6875 13.8438 C 19.5 18.0938 18.4063 22.0156 16.8281 24.5781 C 21.375 23 24.7344 18.8438 25.1875 13.8438 L 19.6875 13.8438 M 25.1875 11.4688 C 24.7344 6.46875 21.375 2.3125 16.8281 0.734375 C 18.4063 3.3125 19.5 7.21875 19.6875 11.4688 L 25.1875 11.4688"/></svg>
