<?xml version="1.0" encoding="UTF-8" standalone="yes"?><svg xmlns="http://www.w3.org/2000/svg" xmlns:xlink="http://www.w3.org/1999/xlink" version="1.2" baseProfile="tiny" x="0" y="0" width="28" height="28" viewBox="0 0 28.5016 28.4983"><defs/><path fill="#6796ff" d="M 19.0016 8.71875 C 19.0016 13.5156 14.736 17.4219 9.50163 17.4219 C 8.15788 17.4219 6.9235 17.1719 5.78288 16.7188 L 1.736 18.8594 C 1.28288 19.0938 0.736001 19 0.345376 18.6563 C -0.045249 18.3125 -0.092124 17.7188 0.142251 17.2656 L 1.87663 13.9531 C 0.689126 12.4688 0.00162596 10.6875 0.00162596 8.71875 C 0.00162596 3.90625 4.25163 0 9.50163 0 C 14.736 0 19.0016 3.90625 19.0016 8.71875 M 19.0016 26.9219 C 14.3454 26.9219 10.486 23.8438 9.64225 19.7969 C 15.5798 19.75 20.7829 15.4844 21.3298 9.75 C 25.4235 10.7344 28.5016 14.1563 28.5016 18.2031 C 28.5016 20.1875 27.7985 21.9688 26.611 23.4531 L 28.3454 26.7656 C 28.5954 27.2188 28.5016 27.8125 28.1423 28.1563 C 27.7985 28.5469 27.2048 28.5938 26.7673 28.3438 L 22.7048 26.2188 C 21.5641 26.6719 20.3298 26.9219 19.0016 26.9219"/></svg>
