<?xml version="1.0" encoding="UTF-8" standalone="yes"?><svg xmlns="http://www.w3.org/2000/svg" xmlns:xlink="http://www.w3.org/1999/xlink" version="1.2" baseProfile="tiny" x="0" y="0" width="22" height="22" viewBox="0 0 22.5955 22.6114"><defs/><path fill="#6796ff" d="M 9.23218 0.312376 C 8.98218 0.0623765 8.60718 -0.0626235 8.27906 0.0623765 C 7.90406 0.156126 7.65406 0.406126 7.57593 0.781126 L 6.95093 3.28113 C 6.85718 3.43738 6.70093 3.56238 6.52906 3.53113 L 4.02906 2.81238 C 3.65406 2.73425 3.27906 2.81238 3.02906 3.06238 C 2.77906 3.31238 2.70093 3.68738 2.77906 4.06238 L 3.48218 6.53113 C 3.52906 6.73425 3.45093 6.90613 3.23218 6.93738 L 0.732182 7.60925 C 0.404057 7.68738 0.107182 7.93738 0.0290572 8.31238 C -0.0490678 8.6405 0.0290572 9.0155 0.279057 9.2655 L 2.15406 11.0624 C 2.27906 11.1874 2.27906 11.4374 2.15406 11.5624 L 0.279057 13.3593 C 0.0290572 13.6093 -0.0490678 13.9843 0.0290572 14.3593 C 0.107182 14.6874 0.404057 14.9374 0.732182 15.0624 L 3.23218 15.6874 C 3.45093 15.7343 3.52906 15.9374 3.48218 16.1093 L 2.77906 18.6093 C 2.70093 18.9374 2.77906 19.3124 3.02906 19.5624 C 3.27906 19.8124 3.65406 19.9374 4.02906 19.8124 L 6.52906 19.1093 C 6.70093 19.0624 6.85718 19.1874 6.95093 19.3593 L 7.57593 21.8593 C 7.65406 22.2343 7.95093 22.4843 8.27906 22.5624 C 8.60718 22.6874 8.98218 22.5624 9.23218 22.3124 L 11.0603 20.4843 C 11.1853 20.3124 11.4041 20.3124 11.5291 20.4843 L 13.3103 22.3124 C 13.5603 22.5624 13.9353 22.6874 14.3103 22.5624 C 14.6541 22.4843 14.9353 22.2343 15.0291 21.8593 L 15.6541 19.3593 C 15.6853 19.1874 15.9041 19.0624 16.0603 19.1093 L 18.5603 19.8124 C 18.9041 19.9374 19.2791 19.8124 19.5291 19.5624 C 19.7791 19.3124 19.9041 18.9374 19.7791 18.6093 L 19.1072 16.1093 C 19.0291 15.9374 19.1541 15.7343 19.3103 15.6874 L 21.8103 15.0624 C 22.1853 14.9843 22.4353 14.6874 22.5603 14.3593 C 22.6541 13.9843 22.5603 13.6093 22.2791 13.3593 L 20.4353 11.5624 C 20.3103 11.4374 20.3103 11.2343 20.4353 11.0624 L 22.2791 9.2655 C 22.5603 9.0155 22.6541 8.6405 22.5603 8.31238 C 22.4353 7.93738 22.1853 7.68738 21.8103 7.60925 L 19.3103 6.93738 C 19.1541 6.90613 19.0291 6.73425 19.1072 6.53113 L 19.7791 4.06238 C 19.9041 3.68738 19.7791 3.31238 19.5291 3.06238 C 19.2791 2.81238 18.9041 2.73425 18.5603 2.81238 L 16.0603 3.53113 C 15.9041 3.56238 15.6853 3.43738 15.6541 3.28113 L 15.0291 0.781126 C 14.9353 0.406126 14.6541 0.156126 14.3103 0.0311265 C 13.9353 -0.0626235 13.5603 0.0623765 13.3103 0.312376 L 11.5291 2.18738 C 11.4041 2.31238 11.1853 2.31238 11.0603 2.18738 L 9.23218 0.312376 Z"/></svg>
