<?xml version="1.0" encoding="UTF-8" standalone="yes"?><svg xmlns="http://www.w3.org/2000/svg" xmlns:xlink="http://www.w3.org/1999/xlink" version="1.2" baseProfile="tiny" x="0" y="0" width="11" height="18" viewBox="0 0 11 18.0068"><defs/><path fill="#6796ff" d="M 5 3.5 C 5.96875 3.5 6.75 2.71875 6.75 1.75 C 6.75 0.78125 5.96875 0 5 0 C 4.03125 0 3.25 0.78125 3.25 1.75 C 3.25 2.71875 4.03125 3.5 5 3.5 M 2.28125 8.125 L 3 7.40625 L 3 9.59375 C 3 10.4688 3.375 11.2813 4.0625 11.875 L 6.28125 13.7813 C 6.46875 13.9375 6.59375 14.1563 6.625 14.4063 L 7 17.1563 C 7.09375 17.6875 7.59375 18.0625 8.15625 18 C 8.6875 17.9063 9.0625 17.4063 9 16.875 L 8.59375 14.125 C 8.5 13.375 8.125 12.7188 7.59375 12.25 L 6.5 11.3438 L 6.5 7.71875 L 6.625 7.875 C 7.1875 8.59375 8.0625 9 8.96875 9 L 10 9 C 10.5625 9 11 8.5625 11 8 C 11 7.4375 10.5625 7 10 7 L 8.96875 7 C 8.65625 7 8.375 6.875 8.1875 6.625 L 7.625 5.9375 C 6.90625 5.03125 5.8125 4.5 4.65625 4.5 C 3.65625 4.5 2.6875 4.90625 1.96875 5.625 L 0.875 6.71875 C 0.3125 7.28125 0 8.03125 0 8.84375 L 0 10 C 0 10.5625 0.4375 11 1 11 C 1.5625 11 2 10.5625 2 10 L 2 8.84375 C 2 8.5625 2.09375 8.3125 2.28125 8.125 M 2.6875 13.7188 C 2.625 13.9063 2.5625 14.0313 2.4375 14.1563 L 0.28125 16.2813 C -0.09375 16.6875 -0.09375 17.3125 0.28125 17.7188 C 0.6875 18.0938 1.3125 18.0938 1.71875 17.7188 L 3.84375 15.5625 C 4.21875 15.2188 4.46875 14.7813 4.59375 14.2813 L 4.6875 14.0313 L 3.25 12.8125 C 3.15625 12.75 3.09375 12.6875 3 12.5938 L 2.6875 13.7188"/></svg>
