<?xml version="1.0" encoding="UTF-8" standalone="yes"?><svg xmlns="http://www.w3.org/2000/svg" xmlns:xlink="http://www.w3.org/1999/xlink" version="1.2" baseProfile="tiny" x="0" y="0" width="16" height="15" viewBox="0 0 16.0081 15.4922"><defs/><path fill="#6796ff" d="M 8.50406 0.117188 C 8.19156 -0.0390625 7.81656 -0.0390625 7.50406 0.117188 L 0.504061 4.11719 C 0.129061 4.33594 -0.0896889 4.80469 0.0353111 5.24219 C 0.160311 5.67969 0.566561 5.99219 1.00406 5.99219 L 2.00406 5.99219 L 2.00406 12.4922 L 0.410311 13.6797 C 0.160311 13.8672 0.00406112 14.1797 0.00406112 14.4922 C 0.00406112 15.0547 0.441561 15.4922 1.00406 15.4922 L 15.0041 15.4922 C 15.5666 15.4922 16.0041 15.0547 16.0041 14.4922 C 16.0041 14.1797 15.8478 13.8672 15.5978 13.6797 L 14.0041 12.4922 L 14.0041 5.99219 L 15.0041 5.99219 C 15.4728 5.99219 15.8478 5.67969 15.9728 5.24219 C 16.0978 4.80469 15.8791 4.33594 15.5041 4.11719 L 8.50406 0.117188 M 12.5041 5.99219 L 12.5041 12.4922 L 10.5041 12.4922 L 10.5041 5.99219 L 12.5041 5.99219 M 9.00406 5.99219 L 9.00406 12.4922 L 7.00406 12.4922 L 7.00406 5.99219 L 9.00406 5.99219 M 5.50406 5.99219 L 5.50406 12.4922 L 3.50406 12.4922 L 3.50406 5.99219 L 5.50406 5.99219 M 8.00406 2.49219 C 8.56656 2.49219 9.00406 2.92969 9.00406 3.49219 C 9.00406 4.05469 8.56656 4.49219 8.00406 4.49219 C 7.44156 4.49219 7.00406 4.05469 7.00406 3.49219 C 7.00406 2.92969 7.44156 2.49219 8.00406 2.49219"/></svg>
