<?xml version="1.0" encoding="UTF-8" standalone="yes"?><svg xmlns="http://www.w3.org/2000/svg" xmlns:xlink="http://www.w3.org/1999/xlink" version="1.2" baseProfile="tiny" x="0" y="0" width="21" height="21" viewBox="0 0 21.247 21.3281"><defs/><path fill="#6796ff" d="M 5.95941 0 L 15.2875 0 C 16.4125 0 17.2875 0.90625 17.2407 2 C 17.2407 2.25 17.2407 2.45313 17.2407 2.65625 L 19.2875 2.65625 C 20.3657 2.65625 21.3344 3.57813 21.2407 4.75 C 20.9594 9.07813 18.7407 11.4531 16.3344 12.6563 C 15.7094 13.0313 15.0375 13.2813 14.3657 13.4531 C 13.5375 14.6563 12.6625 15.2813 11.9594 15.6094 L 11.9594 18.6563 L 14.6157 18.6563 C 15.3657 18.6563 15.9594 19.2344 15.9594 19.9844 C 15.9594 20.7344 15.3657 21.3281 14.6157 21.3281 L 6.63129 21.3281 C 5.91254 21.3281 5.28754 20.7344 5.28754 19.9844 C 5.28754 19.2344 5.91254 18.6563 6.63129 18.6563 L 9.28754 18.6563 L 9.28754 15.6094 C 8.63129 15.2813 7.78754 14.7031 7.00629 13.6094 C 6.25629 13.4063 5.41254 13.1094 4.58441 12.6563 C 2.33441 11.3594 0.287538 8.98438 0.00628842 4.75 C -0.0874616 3.57813 0.881288 2.65625 1.95941 2.65625 L 4.03754 2.65625 C 4.03754 2.45313 4.00629 2.25 4.00629 2 C 3.95941 0.90625 4.88129 0 5.95941 0 M 4.20941 4.65625 L 2.00629 4.65625 C 2.25629 8.20313 3.88129 9.95313 5.53754 10.9063 C 4.95941 9.32813 4.45941 7.32813 4.20941 4.65625 M 15.7875 10.7031 C 17.4907 9.70313 18.9907 7.95313 19.2407 4.65625 L 17.0844 4.65625 C 16.8344 7.20313 16.3657 9.15625 15.7875 10.7031"/></svg>
