<?xml version="1.0" encoding="UTF-8" standalone="yes"?><svg xmlns="http://www.w3.org/2000/svg" xmlns:xlink="http://www.w3.org/1999/xlink" version="1.2" baseProfile="tiny" x="0" y="0" width="18" height="16" viewBox="0 0 18 16"><defs/><path fill="#6796ff" d="M 4 2 C 4 0.90625 4.90625 0 6 0 L 12 0 C 13.0938 0 14 0.90625 14 2 L 14 4 L 16 4 C 17.0938 4 18 4.90625 18 6 L 18 14 C 18 15.0938 17.0938 16 16 16 L 2 16 C 0.90625 16 0 15.0938 0 14 L 0 6 C 0 4.90625 0.90625 4 2 4 L 4 4 L 4 2 M 8.5 11 C 7.9375 11 7.5 11.4375 7.5 12 L 7.5 14.5 L 10.5 14.5 L 10.5 12 C 10.5 11.4375 10.0625 11 9.5 11 L 8.5 11 M 4 11.5 L 4 10.5 C 4 10.2188 3.78125 10 3.5 10 L 2.5 10 C 2.21875 10 2 10.2188 2 10.5 L 2 11.5 C 2 11.7813 2.21875 12 2.5 12 L 3.5 12 C 3.78125 12 4 11.7813 4 11.5 M 3.5 8 C 3.78125 8 4 7.78125 4 7.5 L 4 6.5 C 4 6.21875 3.78125 6 3.5 6 L 2.5 6 C 2.21875 6 2 6.21875 2 6.5 L 2 7.5 C 2 7.78125 2.21875 8 2.5 8 L 3.5 8 M 16 11.5 L 16 10.5 C 16 10.2188 15.7813 10 15.5 10 L 14.5 10 C 14.2188 10 14 10.2188 14 10.5 L 14 11.5 C 14 11.7813 14.2188 12 14.5 12 L 15.5 12 C 15.7813 12 16 11.7813 16 11.5 M 15.5 8 C 15.7813 8 16 7.78125 16 7.5 L 16 6.5 C 16 6.21875 15.7813 6 15.5 6 L 14.5 6 C 14.2188 6 14 6.21875 14 6.5 L 14 7.5 C 14 7.78125 14.2188 8 14.5 8 L 15.5 8 M 8.25 3.25 L 8.25 4.25 L 7.25 4.25 C 6.96875 4.25 6.75 4.46875 6.75 4.75 L 6.75 5.25 C 6.75 5.53125 6.96875 5.75 7.25 5.75 L 8.25 5.75 L 8.25 6.75 C 8.25 7.03125 8.46875 7.25 8.75 7.25 L 9.25 7.25 C 9.53125 7.25 9.75 7.03125 9.75 6.75 L 9.75 5.75 L 10.75 5.75 C 11.0313 5.75 11.25 5.53125 11.25 5.25 L 11.25 4.75 C 11.25 4.46875 11.0313 4.25 10.75 4.25 L 9.75 4.25 L 9.75 3.25 C 9.75 2.96875 9.53125 2.75 9.25 2.75 L 8.75 2.75 C 8.46875 2.75 8.25 2.96875 8.25 3.25"/></svg>
