<?xml version="1.0" encoding="UTF-8" standalone="yes"?><svg xmlns="http://www.w3.org/2000/svg" xmlns:xlink="http://www.w3.org/1999/xlink" version="1.2" baseProfile="tiny" x="0" y="0" width="32" height="32" viewBox="0 0 32 32"><defs/><path fill="#6796ff" d="M 28 16 C 28 9.375 22.625 4 16 4 C 9.375 4 4 9.375 4 16 C 4 22.625 9.375 28 16 28 C 22.625 28 28 22.625 28 16 M 0 16 C 0 7.1875 7.1875 0 16 0 C 24.8125 0 32 7.1875 32 16 C 32 24.8125 24.8125 32 16 32 C 7.1875 32 0 24.8125 0 16 M 16 21 C 18.75 21 21 18.75 21 16 C 21 13.25 18.75 11 16 11 C 13.25 11 11 13.25 11 16 C 11 18.75 13.25 21 16 21 M 16 7 C 21 7 25 11 25 16 C 25 21 21 25 16 25 C 11 25 7 21 7 16 C 7 11 11 7 16 7 M 14 16 C 14 14.875 14.875 14 16 14 C 17.125 14 18 14.875 18 16 C 18 17.125 17.125 18 16 18 C 14.875 18 14 17.125 14 16"/></svg>
