<?xml version="1.0" encoding="UTF-8" standalone="yes"?><svg xmlns="http://www.w3.org/2000/svg" xmlns:xlink="http://www.w3.org/1999/xlink" version="1.2" baseProfile="tiny" x="0" y="0" width="30" height="31" viewBox="0 0 30 31.8125"><defs/><path fill="#6796ff" d="M 15 0 C 15.3125 0 15.5625 0.0625 15.8125 0.1875 L 27.625 5.1875 C 29 5.75 30 7.125 30 8.75 C 30 14.9375 27.4375 26.3125 16.6875 31.4375 C 15.625 31.9375 14.375 31.9375 13.375 31.4375 C 2.5625 26.3125 0.0625 14.9375 0 8.75 C 0 7.125 1 5.75 2.375 5.1875 L 14.1875 0.1875 C 14.4375 0.0625 14.6875 0 15 0 M 15 4.1875 L 15 27.8125 C 23.625 23.625 25.9375 14.375 26 8.875 L 15 4.1875"/></svg>
