<?xml version="1.0" encoding="UTF-8" standalone="yes"?><svg xmlns="http://www.w3.org/2000/svg" xmlns:xlink="http://www.w3.org/1999/xlink" version="1.2" baseProfile="tiny" x="0" y="0" width="17" height="26" viewBox="0 0 17.4063 26.9063"><defs/><path fill="#6796ff" d="M 3.15625 8.70313 C 3.15625 5.64063 5.64063 3.15625 8.70313 3.15625 C 11.7656 3.15625 14.2344 5.64063 14.2344 8.70313 C 14.2344 11.7656 11.7656 14.2344 8.70313 14.2344 C 5.64063 14.2344 3.15625 11.7656 3.15625 8.70313 M 10.2813 17.2656 C 14.3438 16.5156 17.4063 12.9531 17.4063 8.70313 C 17.4063 3.90625 13.5 0 8.70313 0 C 3.90625 0 0 3.90625 0 8.70313 C 0 12.9531 3.0625 16.5156 7.125 17.2656 C 7.125 17.3125 7.125 17.3594 7.125 17.4063 L 7.125 20.5781 L 5.53125 20.5781 C 4.64063 20.5781 3.95313 21.2656 3.95313 22.1563 C 3.95313 23.0469 4.64063 23.7344 5.53125 23.7344 L 7.125 23.7344 L 7.125 25.3281 C 7.125 26.2188 7.8125 26.9063 8.70313 26.9063 C 9.59375 26.9063 10.2813 26.2188 10.2813 25.3281 L 10.2813 23.7344 L 11.875 23.7344 C 12.75 23.7344 13.4531 23.0469 13.4531 22.1563 C 13.4531 21.2656 12.75 20.5781 11.875 20.5781 L 10.2813 20.5781 L 10.2813 17.4063 C 10.2813 17.3594 10.2813 17.3125 10.2813 17.2656"/></svg>
