<?xml version="1.0" encoding="UTF-8" standalone="yes"?><svg xmlns="http://www.w3.org/2000/svg" xmlns:xlink="http://www.w3.org/1999/xlink" version="1.2" baseProfile="tiny" x="0" y="0" width="16" height="16" viewBox="0 0 16 16"><defs/><path fill="#6796ff" d="M 2 3.5 C 2 2.6875 2.6875 2 3.5 2 C 4.34375 2 5 2.6875 5 3.5 L 5 7 L 2 7 L 2 3.5 M 5.5 11.5 C 5.5 9.96875 6.0625 8.59375 7 7.53125 L 7 3.5 C 7 1.5625 5.4375 0 3.5 0 C 1.5625 0 0 1.5625 0 3.5 L 0 12.5 C 0 14.4375 1.5625 16 3.5 16 C 4.65625 16 5.6875 15.4375 6.34375 14.5625 C 5.8125 13.6563 5.5 12.625 5.5 11.5 M 7.53125 13.5938 C 7.65625 13.875 8.03125 13.9063 8.25 13.6875 L 13.6875 8.25 C 13.9063 8.03125 13.875 7.65625 13.5938 7.53125 C 12.9688 7.1875 12.25 7 11.5 7 C 9.03125 7 7 9.03125 7 11.5 C 7 12.25 7.1875 12.9688 7.53125 13.5938 M 9.3125 14.75 C 9.09375 14.9688 9.125 15.3438 9.40625 15.4688 C 10.0313 15.8125 10.75 16 11.5 16 C 14 16 16 14 16 11.5 C 16 10.75 15.8125 10.0313 15.4688 9.40625 C 15.3438 9.125 14.9688 9.09375 14.75 9.3125 L 9.3125 14.75"/></svg>
