<?xml version="1.0" encoding="UTF-8" standalone="yes"?><svg xmlns="http://www.w3.org/2000/svg" xmlns:xlink="http://www.w3.org/1999/xlink" version="1.2" baseProfile="tiny" x="0" y="0" width="14" height="17" viewBox="0 0 14 17.7677"><defs/><path fill="#6796ff" d="M 7.6875 0.1875 C 7.28125 -0.0625 6.75 -0.0625 6.3125 0.1875 C 5.5625 0.65625 5.09375 0.78125 4.1875 0.75 C 3.6875 0.75 3.25 1.03125 3 1.4375 C 2.59375 2.21875 2.21875 2.59375 1.4375 3 C 1.03125 3.25 0.75 3.6875 0.75 4.1875 C 0.78125 5.09375 0.65625 5.5625 0.1875 6.3125 C -0.0625 6.75 -0.0625 7.28125 0.1875 7.6875 C 0.65625 8.4375 0.78125 8.90625 0.75 9.8125 C 0.75 10.3125 1.03125 10.75 1.4375 11 C 2.125 11.375 2.5 11.6875 2.84375 12.2813 L 1.34375 15.3438 C 1.15625 15.6875 1.3125 16.1563 1.65625 16.3438 L 4.34375 17.6875 C 4.71875 17.8438 5.15625 17.7188 5.34375 17.375 L 7 14.4063 L 8.65625 17.375 C 8.84375 17.7188 9.28125 17.875 9.625 17.6875 L 12.3125 16.3438 C 12.6875 16.1563 12.8438 15.6875 12.6563 15.3438 L 11.1563 12.2813 C 11.5 11.6875 11.875 11.375 12.5625 11 C 12.9688 10.75 13.25 10.3125 13.25 9.8125 C 13.2188 8.90625 13.3438 8.4375 13.8125 7.6875 C 14.0625 7.25 14.0625 6.75 13.8125 6.3125 C 13.3438 5.5625 13.2188 5.09375 13.25 4.1875 C 13.25 3.6875 12.9688 3.25 12.5625 3 C 11.7813 2.5625 11.4063 2.21875 11 1.4375 C 10.75 1 10.3125 0.75 9.8125 0.75 C 8.90625 0.78125 8.4375 0.65625 7.6875 0.1875 M 7 4 C 8.65625 4 10 5.34375 10 7 C 10 8.65625 8.65625 10 7 10 C 5.34375 10 4 8.65625 4 7 C 4 5.34375 5.34375 4 7 4"/></svg>
