<?xml version="1.0" encoding="UTF-8" standalone="yes"?><svg xmlns="http://www.w3.org/2000/svg" xmlns:xlink="http://www.w3.org/1999/xlink" version="1.2" baseProfile="tiny" x="0" y="0" width="21" height="20" viewBox="0 0 21.3281 20.977"><defs/><path fill="#6796ff" d="M 2 10.6563 C 2 5.875 5.875 2 10.6719 2 C 13.2813 2 15.6563 3.15625 17.25 5.03125 C 17.5781 5.45313 18.25 5.5 18.6563 5.125 C 19.0781 4.78125 19.125 4.125 18.75 3.70313 C 16.7813 1.45313 13.9063 0 10.6719 0 C 4.79688 0 0 4.78125 0 10.6563 L 0 12.3281 C 0 12.8594 0.453125 13.3281 1 13.3281 C 1.54688 13.3281 2 12.8594 2 12.3281 L 2 10.6563 M 21.125 8.45313 C 21 7.90625 20.4531 7.57813 19.9063 7.70313 C 19.375 7.78125 19.0313 8.32813 19.1563 8.85938 C 19.2813 9.45313 19.3281 10.0313 19.3281 10.6563 L 19.3281 12.3281 C 19.3281 12.8594 19.7813 13.3281 20.3281 13.3281 C 20.875 13.3281 21.3281 12.8594 21.3281 12.3281 L 21.3281 10.6563 C 21.3281 9.90625 21.25 9.15625 21.125 8.45313 M 10.6719 3.32813 C 9.875 3.32813 9.125 3.45313 8.42188 3.70313 C 7.75 3.90625 7.625 4.65625 8.04688 5.20313 C 8.32813 5.53125 8.82813 5.625 9.29688 5.5 C 9.70313 5.40625 10.1719 5.32813 10.6719 5.32813 C 13.625 5.32813 16 7.70313 16 10.6563 L 16 11.7031 C 16 12.7344 15.9531 13.7813 15.8281 14.8281 C 15.75 15.4531 16.2031 15.9844 16.8281 15.9844 C 17.3281 15.9844 17.75 15.6094 17.7813 15.1563 C 17.9063 13.9844 18 12.8594 18 11.7031 L 18 10.6563 C 18 6.625 14.7031 3.32813 10.6719 3.32813 M 6.29688 6.20313 C 5.92188 5.75 5.20313 5.70313 4.875 6.15625 C 3.92188 7.40625 3.32813 8.95313 3.32813 10.6563 L 3.32813 11.7031 C 3.32813 12.7031 3.20313 13.7031 3 14.7031 C 2.875 15.3281 3.32813 15.9844 4 15.9844 C 4.45313 15.9844 4.82813 15.7031 4.92188 15.2813 C 5.20313 14.1094 5.32813 12.9063 5.32813 11.7031 L 5.32813 10.6563 C 5.32813 9.53125 5.70313 8.48438 6.29688 7.625 C 6.57813 7.15625 6.625 6.57813 6.29688 6.20313 M 10.6719 6.65625 C 8.45313 6.65625 6.67188 8.45313 6.67188 10.6563 L 6.67188 11.7031 C 6.67188 13.2031 6.45313 14.6563 6.07813 16.1094 C 5.92188 16.7031 6.375 17.3281 7 17.3281 C 7.375 17.3281 7.75 17.0781 7.82813 16.7031 C 8.29688 15.0781 8.5 13.3594 8.5 11.7031 L 8.5 10.6563 C 8.5 9.45313 9.45313 8.48438 10.6719 8.48438 C 11.875 8.48438 12.8281 9.45313 12.8281 10.6563 L 12.8281 11.7031 C 12.8281 13.2031 12.7031 14.7031 12.4063 16.2031 C 12.2813 16.7813 12.7031 17.3281 13.2813 17.3281 C 13.75 17.3281 14.0781 17.0313 14.1563 16.6094 C 14.5 14.9844 14.6563 13.3594 14.6563 11.7031 L 14.6563 10.6563 C 14.6563 8.45313 12.875 6.65625 10.6719 6.65625 M 11.6563 10.6563 C 11.6563 10.1094 11.2031 9.65625 10.6719 9.65625 C 10.125 9.65625 9.67188 10.1094 9.67188 10.6563 L 9.67188 11.7031 C 9.67188 14.2031 9.20313 16.6563 8.32813 18.9844 L 8.07813 19.6094 C 7.875 20.1563 8.125 20.7344 8.625 20.9063 C 9.17188 21.1094 9.75 20.8594 9.92188 20.3594 L 10.1719 19.7031 C 11.1563 17.1563 11.6563 14.4531 11.6563 11.7031 L 11.6563 10.6563"/></svg>
