<?xml version="1.0" encoding="UTF-8" standalone="yes"?><svg xmlns="http://www.w3.org/2000/svg" xmlns:xlink="http://www.w3.org/1999/xlink" version="1.2" baseProfile="tiny" x="0" y="0" width="21" height="21" viewBox="0 0 21.3281 21.3281"><defs/><path fill="#6796ff" d="M 2.67188 4.65625 C 2.67188 3.57813 3.57813 2.65625 4.67188 2.65625 C 5.79688 2.65625 6.67188 3.57813 6.67188 4.65625 L 6.67188 9.32813 L 2.67188 9.32813 L 2.67188 4.65625 M 7.32813 15.3281 C 7.32813 13.2813 8.07813 11.4531 9.32813 10.0313 L 9.32813 4.65625 C 9.32813 2.07813 7.25 0 4.67188 0 C 2.07813 0 0 2.07813 0 4.65625 L 0 16.6563 C 0 19.2344 2.07813 21.3281 4.67188 21.3281 C 6.20313 21.3281 7.57813 20.5781 8.45313 19.4063 C 7.75 18.2031 7.32813 16.8281 7.32813 15.3281 M 10.0469 18.1094 C 10.2031 18.4844 10.7031 18.5313 11 18.2344 L 18.25 10.9844 C 18.5313 10.7031 18.5 10.2031 18.125 10.0313 C 17.2813 9.57813 16.3281 9.32813 15.3281 9.32813 C 12.0313 9.32813 9.32813 12.0313 9.32813 15.3281 C 9.32813 16.3281 9.57813 17.2813 10.0469 18.1094 M 12.4063 19.6563 C 12.125 19.9531 12.1563 20.4531 12.5313 20.6094 C 13.375 21.0781 14.3281 21.3281 15.3281 21.3281 C 18.6563 21.3281 21.3281 18.6563 21.3281 15.3281 C 21.3281 14.3281 21.0781 13.3594 20.625 12.5313 C 20.4531 12.1563 19.9531 12.1094 19.6563 12.4063 L 12.4063 19.6563"/></svg>
