<?xml version="1.0" encoding="UTF-8" standalone="yes"?><svg xmlns="http://www.w3.org/2000/svg" xmlns:xlink="http://www.w3.org/1999/xlink" version="1.2" baseProfile="tiny" x="0" y="0" width="22" height="28" viewBox="0 0 22.1602 28.1229"><defs/><path fill="#6796ff" d="M 12.168 0.292969 C 11.5273 -0.0976563 10.6836 -0.0976563 9.99609 0.292969 C 8.80859 1.04297 8.05859 1.23047 6.62109 1.18359 C 5.83984 1.18359 5.13672 1.63672 4.74609 2.27734 C 4.10547 3.51172 3.51172 4.10547 2.27734 4.74609 C 1.62109 5.15234 1.18359 5.83984 1.18359 6.63672 C 1.23047 8.05859 1.02734 8.80859 0.292969 9.99609 C -0.0976563 10.6836 -0.0976563 11.5273 0.292969 12.168 C 1.02734 13.3555 1.23047 14.1055 1.18359 15.5273 C 1.18359 16.3242 1.62109 17.0117 2.27734 17.418 C 3.35547 18.0117 3.94922 18.4961 4.49609 19.4492 L 2.12109 24.293 C 1.82422 24.8398 2.07422 25.5742 2.62109 25.8711 L 6.87109 27.9961 C 7.46484 28.2461 8.15234 28.043 8.44922 27.5117 L 11.0742 22.8086 L 13.6992 27.5117 C 13.9961 28.043 14.6836 28.293 15.2305 27.9961 L 19.4805 25.8711 C 20.0742 25.5742 20.3242 24.8398 20.0273 24.293 L 17.6523 19.4492 C 18.1992 18.4961 18.793 18.0117 19.8867 17.418 C 20.5273 17.0117 20.9648 16.3242 20.9648 15.5273 C 20.918 14.1055 21.1211 13.3555 21.8555 12.168 C 22.2617 11.4805 22.2617 10.6836 21.8555 9.99609 C 21.1211 8.80859 20.918 8.05859 20.9648 6.63672 C 20.9648 5.83984 20.5273 5.15234 19.8867 4.74609 C 18.6523 4.05859 18.0586 3.51172 17.4023 2.27734 C 17.0117 1.58984 16.3242 1.18359 15.5273 1.18359 C 14.0898 1.23047 13.3555 1.04297 12.168 0.292969 M 11.0742 6.33984 C 13.6992 6.33984 15.8242 8.46484 15.8242 11.0742 C 15.8242 13.6992 13.6992 15.8242 11.0742 15.8242 C 8.44922 15.8242 6.32422 13.6992 6.32422 11.0742 C 6.32422 8.46484 8.44922 6.33984 11.0742 6.33984"/></svg>
