<?xml version="1.0" encoding="UTF-8" standalone="yes"?><svg xmlns="http://www.w3.org/2000/svg" xmlns:xlink="http://www.w3.org/1999/xlink" version="1.2" baseProfile="tiny" x="0" y="0" width="16" height="16" viewBox="0 0 16 16"><defs/><path fill="#6796ff" d="M 7 5 C 7 4.4375 7.4375 4 8 4 C 8.5625 4 9 4.4375 9 5 C 9 5.5625 8.5625 6 8 6 C 7.4375 6 7 5.5625 7 5 M 8 16 C 12.4063 16 16 12.4063 16 8 C 16 3.59375 12.4063 0 8 0 C 3.59375 0 0 3.59375 0 8 C 0 12.4063 3.59375 16 8 16 M 8 2 C 9.65625 2 11 3.34375 11 5 C 11 6.65625 9.65625 8 8 8 C 6.34375 8 5 9.34375 5 11 C 5 12.6563 6.34375 14 8 14 C 4.6875 14 2 11.3125 2 8 C 2 4.6875 4.6875 2 8 2 M 7 11 C 7 10.4375 7.4375 10 8 10 C 8.5625 10 9 10.4375 9 11 C 9 11.5625 8.5625 12 8 12 C 7.4375 12 7 11.5625 7 11"/></svg>
