<?xml version="1.0" encoding="UTF-8" standalone="yes"?><svg xmlns="http://www.w3.org/2000/svg" xmlns:xlink="http://www.w3.org/1999/xlink" version="1.2" baseProfile="tiny" x="0" y="0" width="17" height="22" viewBox="0 0 17.3281 22.5391"><defs/><path fill="#6796ff" d="M 3.32813 3.08594 C 3.32813 2.53906 3.65625 2.08594 4.125 1.86719 L 8.125 0.117188 C 8.45313 -0.0390625 8.875 -0.0390625 9.20313 0.117188 L 13.2031 1.86719 C 13.7031 2.08594 13.9844 2.53906 13.9844 3.08594 L 13.9844 7.21094 C 13.9844 10.1641 11.6094 12.5391 8.65625 12.5391 C 5.70313 12.5391 3.32813 10.1641 3.32813 7.21094 L 3.32813 3.08594 M 11.9844 6.53906 L 7.32813 6.53906 L 5.32813 6.53906 L 5.32813 7.21094 C 5.32813 9.03906 6.82813 10.5391 8.65625 10.5391 C 10.4844 10.5391 11.9844 9.03906 11.9844 7.21094 L 11.9844 6.53906 M 8 1.86719 L 8 2.53906 L 7.32813 2.53906 C 7.15625 2.53906 7 2.71094 7 2.86719 L 7 3.53906 C 7 3.71094 7.15625 3.86719 7.32813 3.86719 L 8 3.86719 L 8 4.53906 C 8 4.71094 8.15625 4.86719 8.32813 4.86719 L 9 4.86719 C 9.15625 4.86719 9.32813 4.71094 9.32813 4.53906 L 9.32813 3.86719 L 10 3.86719 C 10.1563 3.86719 10.3281 3.71094 10.3281 3.53906 L 10.3281 2.86719 C 10.3281 2.71094 10.1563 2.53906 10 2.53906 L 9.32813 2.53906 L 9.32813 1.86719 C 9.32813 1.71094 9.15625 1.53906 9 1.53906 L 8.32813 1.53906 C 8.15625 1.53906 8 1.71094 8 1.86719 M 5.28125 14.6641 C 5 14.4453 4.625 14.4141 4.32813 14.5391 C 1.78125 15.6953 0 18.2891 0 21.2891 C 0 21.9922 0.53125 22.5391 1.25 22.5391 L 16.0781 22.5391 C 16.7813 22.5391 17.3281 21.9922 17.3281 21.2891 C 17.3281 18.2891 15.5313 15.6953 12.9844 14.5391 C 12.6563 14.4141 12.3281 14.4453 12.0313 14.6641 L 9.25 16.7422 C 8.90625 17.0391 8.40625 17.0391 8.03125 16.7422 L 5.25 14.6641 L 5.28125 14.6641"/></svg>
