<?xml version="1.0" encoding="UTF-8" standalone="yes"?><svg xmlns="http://www.w3.org/2000/svg" xmlns:xlink="http://www.w3.org/1999/xlink" version="1.2" baseProfile="tiny" x="0" y="0" width="16" height="21" viewBox="0 0 16 21.3281"><defs/><path fill="#6796ff" d="M 10.6719 0 C 11.6563 0 12.5 0.53125 12.9531 1.32813 L 13.3281 1.32813 C 14.7813 1.32813 16 2.53125 16 4 L 16 18.6563 C 16 20.1094 14.7813 21.3281 13.3281 21.3281 L 2.67188 21.3281 C 1.20313 21.3281 0 20.1094 0 18.6563 L 0 4 C 0 2.53125 1.20313 1.32813 2.67188 1.32813 L 3.04688 1.32813 C 3.5 0.53125 4.32813 0 5.32813 0 L 10.6719 0 M 11.7813 8.85938 C 11.3281 8.53125 10.7031 8.60938 10.375 9.07813 L 6.82813 13.9844 L 5.70313 12.8281 C 5.32813 12.4531 4.70313 12.4063 4.29688 12.8281 C 3.92188 13.2031 3.92188 13.8281 4.29688 14.2344 L 6.20313 16.2344 C 6.42188 16.4531 6.70313 16.5313 7 16.5313 C 7.29688 16.4844 7.57813 16.3594 7.75 16.1094 L 12 10.2344 C 12.3281 9.78125 12.25 9.15625 11.7813 8.85938 M 5.67188 2.65625 C 5.125 2.65625 4.67188 3.125 4.67188 3.65625 C 4.67188 4.20313 5.125 4.65625 5.67188 4.65625 L 10.3281 4.65625 C 10.875 4.65625 11.3281 4.20313 11.3281 3.65625 C 11.3281 3.125 10.875 2.65625 10.3281 2.65625 L 5.67188 2.65625"/></svg>
