<?xml version="1.0" encoding="UTF-8" standalone="yes"?><svg xmlns="http://www.w3.org/2000/svg" xmlns:xlink="http://www.w3.org/1999/xlink" version="1.2" baseProfile="tiny" x="0" y="0" width="16" height="15" viewBox="0 0 16 15.0055"><defs/><path fill="#6796ff" d="M 14.7188 0.224279 C 14.9375 0.0367786 15.2188 -0.0569714 15.5 0.0367786 C 15.7813 0.161779 16 0.443029 16 0.755529 L 16 6.59928 C 16 10.693 12.625 14.0055 8.53125 14.0055 C 6.125 14.0055 4.0625 12.4743 3.3125 10.2868 C 2.1875 11.2555 1.5 12.6618 1.5 14.2555 C 1.5 14.6618 1.15625 15.0055 0.75 15.0055 C 0.34375 15.0055 0 14.6618 0 14.2555 C 0 11.9118 1.1875 9.84928 3 8.63053 C 4.09375 7.91178 5.4375 7.50553 6.75 7.50553 L 9.25 7.50553 C 9.65625 7.50553 10 7.16178 10 6.75553 C 10 6.34928 9.65625 6.00553 9.25 6.00553 L 6.75 6.00553 C 5.5 6.00553 4.34375 6.28678 3.28125 6.78678 C 4 4.59928 6.0625 3.00553 8.5 3.00553 C 10.5625 3.00553 12.125 2.31803 13.1563 1.63053 C 13.75 1.22428 14.25 0.755529 14.7188 0.224279 Z"/></svg>
