<?xml version="1.0" encoding="UTF-8" standalone="yes"?><svg xmlns="http://www.w3.org/2000/svg" xmlns:xlink="http://www.w3.org/1999/xlink" version="1.2" baseProfile="tiny" x="0" y="0" width="15" height="16" viewBox="0 0 15.9451 16"><defs/><path fill="#6796ff" d="M 4.47255 0 L 11.4725 0 C 12.3163 0 12.9725 0.6875 12.9413 1.5 C 12.9413 1.6875 12.9413 1.84375 12.9413 2 L 14.4725 2 C 15.285 2 16.0038 2.6875 15.9413 3.5625 C 15.7225 6.8125 14.0663 8.59375 12.2538 9.5 C 11.785 9.78125 11.285 9.96875 10.785 10.0938 C 10.16 11 9.5038 11.4688 8.97255 11.7188 L 8.97255 14 L 10.9725 14 C 11.535 14 11.9725 14.4375 11.9725 15 C 11.9725 15.5625 11.535 16 10.9725 16 L 4.97255 16 C 4.4413 16 3.97255 15.5625 3.97255 15 C 3.97255 14.4375 4.4413 14 4.97255 14 L 6.97255 14 L 6.97255 11.7188 C 6.47255 11.4688 5.84755 11.0313 5.2538 10.2188 C 4.6913 10.0625 4.0663 9.84375 3.4413 9.5 C 1.7538 8.53125 0.222545 6.75 0.0037952 3.5625 C -0.0587048 2.6875 0.660045 2 1.47255 2 L 3.03505 2 C 3.03505 1.84375 3.0038 1.6875 3.0038 1.5 C 2.97255 0.6875 3.66005 0 4.47255 0 M 3.16005 3.5 L 1.5038 3.5 C 1.6913 6.15625 2.91005 7.46875 4.16005 8.1875 C 3.72255 7 3.34755 5.5 3.16005 3.5 M 11.8475 8.03125 C 13.1288 7.28125 14.2538 5.96875 14.4413 3.5 L 12.8163 3.5 C 12.6288 5.40625 12.285 6.875 11.8475 8.03125"/></svg>
