<?xml version="1.0" encoding="UTF-8" standalone="yes"?><svg xmlns="http://www.w3.org/2000/svg" xmlns:xlink="http://www.w3.org/1999/xlink" version="1.2" baseProfile="tiny" x="0" y="0" width="21" height="21" viewBox="0 0 21.3445 21.3281"><defs/><path fill="#6796ff" d="M 11.5863 0.375 C 11.0863 -0.125 10.305 -0.125 9.75817 0.375 L 0.430048 9.03125 C 0.0550481 9.40625 -0.116827 9.98438 0.0862981 10.4844 C 0.305048 10.9844 0.805048 11.3281 1.3363 11.3281 L 2.00817 11.3281 L 2.00817 18.6563 C 2.00817 20.1094 3.2113 21.3281 4.68005 21.3281 L 16.6644 21.3281 C 18.1332 21.3281 19.3363 20.1094 19.3363 18.6563 L 19.3363 11.3281 L 20.0082 11.3281 C 20.5394 11.3281 21.0394 10.9844 21.2582 10.4844 C 21.4613 9.98438 21.2894 9.40625 20.9144 9.03125 L 11.5863 0.375 M 9.3363 10.3281 C 9.3363 9.95313 9.63317 9.65625 10.0082 9.65625 L 11.3363 9.65625 C 11.7113 9.65625 12.0082 9.95313 12.0082 10.3281 L 12.0082 11.9844 L 13.6644 11.9844 C 14.0394 11.9844 14.3363 12.2813 14.3363 12.6563 L 14.3363 13.9844 C 14.3363 14.3594 14.0394 14.6563 13.6644 14.6563 L 12.0082 14.6563 L 12.0082 16.3281 C 12.0082 16.7031 11.7113 16.9844 11.3363 16.9844 L 10.0082 16.9844 C 9.63317 16.9844 9.3363 16.7031 9.3363 16.3281 L 9.3363 14.6563 L 7.68005 14.6563 C 7.30505 14.6563 7.00817 14.3594 7.00817 13.9844 L 7.00817 12.6563 C 7.00817 12.2813 7.30505 11.9844 7.68005 11.9844 L 9.3363 11.9844 L 9.3363 10.3281"/></svg>
