<?xml version="1.0" encoding="UTF-8" standalone="yes"?><svg xmlns="http://www.w3.org/2000/svg" xmlns:xlink="http://www.w3.org/1999/xlink" version="1.2" baseProfile="tiny" x="0" y="0" width="22" height="23" viewBox="0 0 22.1563 23.7344"><defs/><path fill="#6796ff" d="M 15.8281 0 C 16.7188 0 17.4063 0.6875 17.4063 1.57813 L 17.4063 3.15625 L 19 3.15625 C 20.7344 3.15625 22.1563 4.59375 22.1563 6.32813 L 22.1563 20.5781 C 22.1563 22.2969 20.7344 23.7344 19 23.7344 L 3.17188 23.7344 C 1.4375 23.7344 0 22.2969 0 20.5781 L 0 6.32813 C 0 4.59375 1.4375 3.15625 3.17188 3.15625 L 4.75 3.15625 L 4.75 1.57813 C 4.75 0.6875 5.4375 0 6.32813 0 C 7.21875 0 7.92188 0.6875 7.92188 1.57813 L 7.92188 3.15625 L 14.25 3.15625 L 14.25 1.57813 C 14.25 0.6875 14.9375 0 15.8281 0 M 16.9219 8.01563 C 16.375 7.60938 15.625 7.71875 15.2813 8.25 L 9.34375 16.375 L 6.78125 13.7969 C 6.32813 13.3438 5.54688 13.3438 5.09375 13.7969 C 4.65625 14.2969 4.65625 15.0313 5.09375 15.4844 L 8.65625 19.0469 C 8.90625 19.2813 9.25 19.4375 9.59375 19.3906 C 9.9375 19.3906 10.2344 19.1875 10.4375 18.8906 L 17.1719 9.64063 C 17.5625 9.14063 17.4688 8.40625 16.9219 8.01563"/></svg>
