<?xml version="1.0" encoding="UTF-8" standalone="yes"?><svg xmlns="http://www.w3.org/2000/svg" xmlns:xlink="http://www.w3.org/1999/xlink" version="1.2" baseProfile="tiny" x="0" y="0" width="26" height="25" viewBox="0 0 26.7013 25.2429"><defs/><path fill="#6796ff" d="M 23.75 11.7742 L 15.0469 11.7742 C 14.2031 11.7742 13.4531 11.0867 13.4531 10.1961 L 13.4531 1.49294 C 13.4531 0.602317 14.2031 -0.0851833 15.0469 0.00856673 C 20.3438 0.696067 24.5469 4.89919 25.2344 10.1961 C 25.375 11.0867 24.6406 11.7742 23.75 11.7742 M 9.45313 1.74294 C 10.3438 1.53982 11.0938 2.28982 11.0938 3.22732 L 11.0938 12.9617 C 11.0938 13.2586 11.1875 13.5086 11.375 13.7117 L 17.9063 21.6336 C 18.5 22.3211 18.3594 23.3523 17.5625 23.8054 C 15.8906 24.6961 13.9531 25.2429 11.875 25.2429 C 5.34375 25.2429 0 19.9461 0 13.3679 C 0 7.68044 4.0625 2.88357 9.45313 1.74294 M 22.0625 14.1492 L 25.2344 14.1492 C 26.125 14.1492 26.8594 14.9461 26.6719 15.8367 C 26.1719 18.2117 24.9375 20.3367 23.25 21.9773 C 22.6094 22.5711 21.6719 22.4148 21.125 21.7742 L 16.9688 16.7273 C 16.125 15.7429 16.875 14.1492 18.2031 14.1492 L 22.0625 14.1492"/></svg>
