<?xml version="1.0" encoding="UTF-8" standalone="yes"?><svg xmlns="http://www.w3.org/2000/svg" xmlns:xlink="http://www.w3.org/1999/xlink" version="1.2" baseProfile="tiny" x="0" y="0" width="14" height="16" viewBox="0 0 14.5 16"><defs/><path fill="#6796ff" d="M 1.5 0.4375 C 1.46875 0.1875 1.25 0 1 0 C 0.75 0 0.53125 0.1875 0.5 0.4375 L 0.0625 4.6875 C 0.03125 4.875 0 5.0625 0 5.25 C 0 6.6875 1.09375 7.875 2.5 8 L 2.5 15 C 2.5 15.5625 2.9375 16 3.5 16 C 4.0625 16 4.5 15.5625 4.5 15 L 4.5 8 C 5.90625 7.875 7 6.6875 7 5.25 C 7 5.0625 6.96875 4.875 6.9375 4.6875 L 6.5 0.4375 C 6.46875 0.1875 6.25 0 6 0 C 5.75 0 5.53125 0.1875 5.5 0.4375 L 5.09375 4.6875 C 5.0625 4.875 4.90625 5 4.71875 5 C 4.5625 5 4.40625 4.875 4.375 4.6875 L 4 0.46875 C 3.96875 0.1875 3.75 0 3.5 0 C 3.25 0 3.03125 0.1875 3 0.46875 L 2.625 4.6875 C 2.59375 4.875 2.4375 5 2.28125 5 C 2.09375 5 1.9375 4.875 1.9375 4.6875 L 1.5 0.4375 M 13.5 0 C 13 0 9.5 1 9.5 5.5 L 9.5 9 C 9.5 10.0938 10.4063 11 11.5 11 L 12.5 11 L 12.5 15 C 12.5 15.5625 12.9375 16 13.5 16 C 14.0625 16 14.5 15.5625 14.5 15 L 14.5 1 C 14.5 0.4375 14.0625 0 13.5 0"/></svg>
