<?xml version="1.0" encoding="UTF-8" standalone="yes"?><svg xmlns="http://www.w3.org/2000/svg" xmlns:xlink="http://www.w3.org/1999/xlink" version="1.2" baseProfile="tiny" x="0" y="0" width="26" height="31" viewBox="0 0 26 31.5"><defs/><path fill="#6796ff" d="M 13 0 C 8.875 0 5.5 3.375 5.5 7.5 C 5.5 11.625 8.875 15 13 15 C 17.125 15 20.5 11.625 20.5 7.5 C 20.5 3.375 17.125 0 13 0 M 16.75 19.5625 C 16.4375 19.5 16.0625 19.5 15.6875 19.5 L 10.3125 19.5 C 9.9375 19.5 9.5625 19.5 9.25 19.5625 L 9.25 23.75 C 10.25 24.25 11 25.3125 11 26.5 C 11 28.125 9.625 29.5 8 29.5 C 6.3125 29.5 5 28.125 5 26.5 C 5 25.3125 5.6875 24.25 6.75 23.75 L 6.75 20.125 C 2.8125 21.5625 0 25.375 0 29.8125 C 0 30.75 0.75 31.5 1.6875 31.5 L 24.3125 31.5 C 25.25 31.5 26 30.75 26 29.8125 C 26 25.375 23.1875 21.5625 19.25 20.125 L 19.25 22.4375 C 20.6875 23 21.75 24.375 21.75 26 L 21.75 28 C 21.75 28.6875 21.1875 29.25 20.5 29.25 C 19.8125 29.25 19.25 28.6875 19.25 28 L 19.25 26 C 19.25 25.3125 18.6875 24.75 18 24.75 C 17.3125 24.75 16.75 25.3125 16.75 26 L 16.75 28 C 16.75 28.6875 16.1875 29.25 15.5 29.25 C 14.8125 29.25 14.25 28.6875 14.25 28 L 14.25 26 C 14.25 24.375 15.3125 23 16.75 22.4375 L 16.75 19.5625"/></svg>
