<?xml version="1.0" encoding="UTF-8" standalone="yes"?><svg xmlns="http://www.w3.org/2000/svg" xmlns:xlink="http://www.w3.org/1999/xlink" version="1.2" baseProfile="tiny" x="0" y="0" width="17" height="16" viewBox="0 0 17.204 16.4209"><defs/><path fill="#6796ff" d="M 9.28678 0.40625 C 9.13053 0.15625 8.88053 0 8.59928 0 C 8.31803 0 8.06803 0.15625 7.94303 0.40625 L 5.63053 4.90625 L 0.630529 5.71875 C 0.349279 5.75 0.130529 5.9375 0.0367786 6.21875 C -0.0569714 6.5 0.0367786 6.78125 0.224279 6.96875 L 3.78678 10.5625 L 3.00553 15.5625 C 2.97428 15.8438 3.06803 16.125 3.31803 16.2813 C 3.53678 16.4375 3.84928 16.4688 4.09928 16.3438 L 8.59928 14.0625 L 13.0993 16.3438 C 13.3493 16.4688 13.6618 16.4375 13.8805 16.2813 C 14.1305 16.125 14.2243 15.8438 14.193 15.5625 L 13.4118 10.5625 L 16.9743 6.96875 C 17.193 6.78125 17.2555 6.5 17.1618 6.21875 C 17.068 5.9375 16.8493 5.75 16.568 5.71875 L 11.568 4.90625 L 9.28678 0.40625 Z"/></svg>
