<?xml version="1.0" encoding="UTF-8" standalone="yes"?><svg xmlns="http://www.w3.org/2000/svg" xmlns:xlink="http://www.w3.org/1999/xlink" version="1.2" baseProfile="tiny" x="0" y="0" width="20" height="16" viewBox="0 0 20 16"><defs/><path fill="#6796ff" d="M 10 0 C 12.2188 0 14 1.78125 14 4 C 14 6.21875 12.2188 8 10 8 C 7.78125 8 6 6.21875 6 4 C 6 1.78125 7.78125 0 10 0 M 1.25 2 C 1.9375 2 2.5 2.5625 2.5 3.25 L 2.5 8.25 C 2.5 8.78125 2.71875 9.3125 3.09375 9.6875 L 4.6875 11.2813 C 4.9375 11.5313 5.34375 11.5625 5.65625 11.375 C 6.0625 11.0938 6.125 10.5313 5.78125 10.1875 C 5.53125 9.96875 5.03125 9.46875 4.28125 8.71875 C 3.90625 8.3125 3.90625 7.6875 4.28125 7.28125 C 4.6875 6.90625 5.3125 6.90625 5.71875 7.28125 C 6.46875 8.0625 6.96875 8.53125 7.1875 8.78125 L 7.96875 9.5625 C 8.625 10.2188 9 11.0938 9 12.0313 L 9 14.5 C 9 15.3438 8.3125 16 7.5 16 L 5.40625 16 C 4.875 16 4.375 15.7813 4 15.4063 L 0.875 12.2813 C 0.3125 11.7188 0 10.9688 0 10.1875 L 0 3.25 C 0 2.5625 0.5625 2 1.25 2 M 18.75 2 C 19.4375 2 20 2.5625 20 3.25 L 20 10.1875 C 20 10.9688 19.6875 11.7188 19.125 12.2813 L 16 15.4063 C 15.625 15.7813 15.125 16 14.5938 16 L 12.5 16 C 11.6875 16 11 15.3438 11 14.5 L 11 12.0313 C 11 11.0938 11.375 10.2188 12.0313 9.5625 L 12.8125 8.78125 C 13.0313 8.53125 13.5313 8.0625 14.2813 7.28125 C 14.6875 6.90625 15.3125 6.90625 15.7188 7.28125 C 16.0938 7.6875 16.0938 8.3125 15.7188 8.71875 C 14.9688 9.46875 14.4688 9.96875 14.2188 10.1875 C 13.875 10.5313 13.9375 11.0938 14.3438 11.375 C 14.6563 11.5625 15.0625 11.5313 15.3125 11.2813 L 16.9063 9.6875 C 17.2813 9.3125 17.5 8.78125 17.5 8.25 L 17.5 3.25 C 17.5 2.5625 18.0625 2 18.75 2"/></svg>
