<?xml version="1.0" encoding="UTF-8" standalone="yes"?><svg xmlns="http://www.w3.org/2000/svg" xmlns:xlink="http://www.w3.org/1999/xlink" version="1.2" baseProfile="tiny" x="0" y="0" width="22" height="25" viewBox="0 0 22.1563 25.3281"><defs/><path fill="#6796ff" d="M 14.25 0 L 6.32813 0 C 5.4375 0 4.75 0.6875 4.75 1.57813 C 4.75 2.46875 5.4375 3.15625 6.32813 3.15625 L 6.32813 10.6719 L 0.390625 21.0625 C 0.140625 21.5156 0 22.0156 0 22.5 C 0 24.0313 1.28125 25.3281 2.8125 25.3281 L 19.3438 25.3281 C 20.875 25.3281 22.1563 24.0313 22.1563 22.5 C 22.1563 22.0156 22.0156 21.5156 21.8125 21.0625 L 15.8281 10.6719 L 15.8281 3.15625 C 16.7188 3.15625 17.4063 2.46875 17.4063 1.57813 C 17.4063 0.6875 16.7188 0 15.8281 0 L 14.25 0 M 9.5 10.6719 L 9.5 3.15625 L 12.6719 3.15625 L 12.6719 10.6719 C 12.6719 11.2188 12.8125 11.7656 13.0625 12.2188 L 15.1406 15.8281 L 7.03125 15.8281 L 9.10938 12.2188 C 9.34375 11.7656 9.5 11.2188 9.5 10.6719"/></svg>
