<?xml version="1.0" encoding="UTF-8" standalone="yes"?><svg xmlns="http://www.w3.org/2000/svg" xmlns:xlink="http://www.w3.org/1999/xlink" version="1.2" baseProfile="tiny" x="0" y="0" width="30" height="30" viewBox="0 0 30.4587 30.4596"><defs/><path fill="#6796ff" d="M 8.47668 17.982 L 2.03918 17.982 C 0.476684 17.982 -0.523316 16.2945 0.289184 14.982 L 3.60168 9.4195 C 4.16418 8.5445 5.10168 7.982 6.16418 7.982 L 12.1017 7.982 C 16.8517 -0.080498 23.9767 -0.455498 28.7267 0.232002 C 29.5392 0.357002 30.1642 0.982002 30.2267 1.732 C 30.9142 6.482 30.5392 13.607 22.4767 18.357 L 22.4767 24.2945 C 22.4767 25.357 21.9142 26.2945 21.0392 26.857 L 15.5392 30.1695 C 14.1642 30.982 12.4767 29.982 12.4767 28.482 L 12.4767 21.982 C 12.4767 19.7945 10.6642 17.982 8.47668 17.982 M 25.4767 7.982 C 25.4767 6.2945 24.1642 4.982 22.4767 4.982 C 20.7892 4.982 19.4767 6.2945 19.4767 7.982 C 19.4767 9.6695 20.7892 10.982 22.4767 10.982 C 24.1642 10.982 25.4767 9.6695 25.4767 7.982"/></svg>
