<?xml version="1.0" encoding="UTF-8" standalone="yes"?><svg xmlns="http://www.w3.org/2000/svg" xmlns:xlink="http://www.w3.org/1999/xlink" version="1.2" baseProfile="tiny" x="0" y="0" width="25" height="25" viewBox="0 0 25.3281 25.3281"><defs/><path fill="#6796ff" d="M 22.1563 12.6563 C 22.1563 7.42188 17.9063 3.15625 12.6719 3.15625 C 7.42188 3.15625 3.17188 7.42188 3.17188 12.6563 C 3.17188 17.9063 7.42188 22.1563 12.6719 22.1563 C 17.9063 22.1563 22.1563 17.9063 22.1563 12.6563 M 0 12.6563 C 0 5.6875 5.6875 0 12.6719 0 C 19.6406 0 25.3281 5.6875 25.3281 12.6563 C 25.3281 19.6406 19.6406 25.3281 12.6719 25.3281 C 5.6875 25.3281 0 19.6406 0 12.6563 M 12.6719 16.6094 C 14.8438 16.6094 16.625 14.8281 16.625 12.6563 C 16.625 10.4844 14.8438 8.70313 12.6719 8.70313 C 10.4844 8.70313 8.70313 10.4844 8.70313 12.6563 C 8.70313 14.8281 10.4844 16.6094 12.6719 16.6094 M 12.6719 5.53125 C 16.625 5.53125 19.7813 8.70313 19.7813 12.6563 C 19.7813 16.6094 16.625 19.7813 12.6719 19.7813 C 8.70313 19.7813 5.54688 16.6094 5.54688 12.6563 C 5.54688 8.70313 8.70313 5.53125 12.6719 5.53125 M 11.0781 12.6563 C 11.0781 11.7656 11.7813 11.0781 12.6719 11.0781 C 13.5469 11.0781 14.25 11.7656 14.25 12.6563 C 14.25 13.5469 13.5469 14.2344 12.6719 14.2344 C 11.7813 14.2344 11.0781 13.5469 11.0781 12.6563"/></svg>
