<?xml version="1.0" encoding="UTF-8" standalone="yes"?><svg xmlns="http://www.w3.org/2000/svg" xmlns:xlink="http://www.w3.org/1999/xlink" version="1.2" baseProfile="tiny" x="0" y="0" width="21" height="18" viewBox="0 0 21.3281 18.6563"><defs/><path fill="#6796ff" d="M 10.6719 3.17188 L 10.0469 2.29688 C 9 0.875 7.32813 0 5.54688 0 C 2.5 0 0 2.5 0 5.54688 L 0 5.67188 C 0 6.625 0.25 7.65625 0.703125 8.65625 L 5.125 8.65625 C 5.25 8.65625 5.375 8.57813 5.42188 8.45313 L 6.75 5.29688 C 6.92188 4.92188 7.25 4.67188 7.67188 4.67188 C 8.04688 4.67188 8.42188 4.875 8.57813 5.25 L 10.7031 10 L 12.4531 6.54688 C 12.625 6.20313 12.9531 6 13.3281 6 C 13.7031 6 14.0313 6.20313 14.25 6.54688 L 15.2031 8.5 C 15.25 8.57813 15.375 8.65625 15.5 8.65625 L 20.6563 8.65625 C 21.0781 7.65625 21.3281 6.625 21.3281 5.67188 L 21.3281 5.54688 C 21.3281 2.5 18.8281 0 15.7813 0 C 14 0 12.3281 0.875 11.2813 2.29688 L 10.6719 3.17188 M 19.5781 10.6563 L 15.5 10.6563 C 14.625 10.6563 13.7813 10.1563 13.4063 9.375 L 13.3281 9.25 L 11.5781 12.7813 C 11.375 13.125 11.0313 13.3281 10.6719 13.3281 C 10.25 13.3281 9.92188 13.0781 9.75 12.75 L 7.70313 8.15625 L 7.25 9.25 C 6.92188 10.125 6.04688 10.6563 5.125 10.6563 L 1.75 10.6563 C 3.75 13.75 6.875 16.5781 8.875 18.0781 C 9.375 18.4531 10 18.6563 10.6719 18.6563 C 11.2813 18.6563 11.9531 18.5 12.4531 18.0781 C 14.4531 16.5781 17.5781 13.75 19.5781 10.6563"/></svg>
