<?xml version="1.0" encoding="UTF-8" standalone="yes"?><svg xmlns="http://www.w3.org/2000/svg" xmlns:xlink="http://www.w3.org/1999/xlink" version="1.2" baseProfile="tiny" x="0" y="0" width="18" height="14" viewBox="0 0 18 14"><defs/><path fill="#6796ff" d="M 5.3125 6.125 C 6.375 6.6875 7.3125 7.5 8.09375 8.4375 C 8.4375 8.875 8.75 9.34375 9 9.84375 C 9.25 9.34375 9.5625 8.875 9.90625 8.4375 C 10.6875 7.5 11.625 6.6875 12.6875 6.125 C 14 5.40625 15.5 5 17.0625 5 L 17.375 5 C 17.7188 5 18 5.28125 18 5.625 C 18 10.25 14.25 14 9.625 14 L 8.375 14 C 3.75 14 0 10.25 0 5.625 C 0 5.28125 0.28125 5 0.625 5 L 0.9375 5 C 2.5 5 4 5.40625 5.3125 6.125 M 9.5 0.1875 C 10.0313 0.6875 11.4063 2.15625 12.2813 4.625 C 11.0313 5.28125 9.90625 6.15625 9 7.1875 C 8.09375 6.15625 6.96875 5.28125 5.71875 4.625 C 6.59375 2.15625 7.96875 0.6875 8.5 0.1875 C 8.625 0.0625 8.8125 0 9 0 C 9.1875 0 9.375 0.0625 9.5 0.1875"/></svg>
