<?xml version="1.0" encoding="UTF-8" standalone="yes"?><svg xmlns="http://www.w3.org/2000/svg" xmlns:xlink="http://www.w3.org/1999/xlink" version="1.2" baseProfile="tiny" x="0" y="0" width="13" height="16" viewBox="0 0 13 16.9063"><defs/><path fill="#6796ff" d="M 2.5 2.3125 C 2.5 1.90625 2.75 1.5625 3.09375 1.40625 L 6.09375 0.09375 C 6.34375 -0.03125 6.65625 -0.03125 6.90625 0.09375 L 9.90625 1.40625 C 10.2813 1.5625 10.5 1.90625 10.5 2.3125 L 10.5 5.40625 C 10.5 7.625 8.71875 9.40625 6.5 9.40625 C 4.28125 9.40625 2.5 7.625 2.5 5.40625 L 2.5 2.3125 M 9 4.90625 L 5.5 4.90625 L 4 4.90625 L 4 5.40625 C 4 6.78125 5.125 7.90625 6.5 7.90625 C 7.875 7.90625 9 6.78125 9 5.40625 L 9 4.90625 M 6 1.40625 L 6 1.90625 L 5.5 1.90625 C 5.375 1.90625 5.25 2.03125 5.25 2.15625 L 5.25 2.65625 C 5.25 2.78125 5.375 2.90625 5.5 2.90625 L 6 2.90625 L 6 3.40625 C 6 3.53125 6.125 3.65625 6.25 3.65625 L 6.75 3.65625 C 6.875 3.65625 7 3.53125 7 3.40625 L 7 2.90625 L 7.5 2.90625 C 7.625 2.90625 7.75 2.78125 7.75 2.65625 L 7.75 2.15625 C 7.75 2.03125 7.625 1.90625 7.5 1.90625 L 7 1.90625 L 7 1.40625 C 7 1.28125 6.875 1.15625 6.75 1.15625 L 6.25 1.15625 C 6.125 1.15625 6 1.28125 6 1.40625 M 3.96875 11 C 3.75 10.8438 3.46875 10.8125 3.25 10.9063 C 1.34375 11.7813 0 13.7188 0 15.9688 C 0 16.5 0.40625 16.9063 0.9375 16.9063 L 12.0625 16.9063 C 12.5938 16.9063 13 16.5 13 15.9688 C 13 13.7188 11.6563 11.7813 9.75 10.9063 C 9.5 10.8125 9.25 10.8438 9.03125 11 L 6.9375 12.5625 C 6.6875 12.7813 6.3125 12.7813 6.03125 12.5625 L 3.9375 11 L 3.96875 11"/></svg>
