<?xml version="1.0" encoding="UTF-8" standalone="yes"?><svg xmlns="http://www.w3.org/2000/svg" xmlns:xlink="http://www.w3.org/1999/xlink" version="1.2" baseProfile="tiny" x="0" y="0" width="20" height="20" viewBox="0 0 20.3002 20.3019"><defs/><path fill="#6796ff" d="M 5.64802 11.9879 L 1.36677 11.9879 C 0.319895 11.9879 -0.35198 10.8629 0.194895 9.98789 L 2.39802 6.28476 C 2.77302 5.69101 3.39802 5.31601 4.11677 5.31601 L 8.0699 5.31601 C 11.2261 -0.0589883 15.9761 -0.308988 19.148 0.159762 C 19.6949 0.237887 20.1011 0.659762 20.148 1.15976 C 20.6011 4.31601 20.3511 9.06601 14.9761 12.2379 L 14.9761 16.191 C 14.9761 16.8941 14.6011 17.5191 14.023 17.8941 L 10.3668 20.1129 C 9.4449 20.6441 8.3199 19.9879 8.3199 18.9879 L 8.3199 14.6441 C 8.3199 13.191 7.11677 11.9879 5.64802 11.9879 M 16.9761 5.31601 C 16.9761 4.19101 16.1011 3.31601 14.9761 3.31601 C 13.8511 3.31601 12.9761 4.19101 12.9761 5.31601 C 12.9761 6.44101 13.8511 7.31601 14.9761 7.31601 C 16.1011 7.31601 16.9761 6.44101 16.9761 5.31601"/></svg>
