<?xml version="1.0" encoding="UTF-8" standalone="yes"?><svg xmlns="http://www.w3.org/2000/svg" xmlns:xlink="http://www.w3.org/1999/xlink" version="1.2" baseProfile="tiny" x="0" y="0" width="16" height="14" viewBox="0 0 16 14"><defs/><path fill="#6796ff" d="M 6 1 C 6 0.4375 6.4375 0 7 0 L 9 0 C 9.5625 0 10 0.4375 10 1 L 10 3 C 10 3.5625 9.5625 4 9 4 L 8.75 4 L 8.75 6 L 12.5 6 C 13.75 6 14.75 7 14.75 8.25 L 14.75 10 L 15 10 C 15.5625 10 16 10.4375 16 11 L 16 13 C 16 13.5625 15.5625 14 15 14 L 13 14 C 12.4375 14 12 13.5625 12 13 L 12 11 C 12 10.4375 12.4375 10 13 10 L 13.25 10 L 13.25 8.25 C 13.25 7.84375 12.9063 7.5 12.5 7.5 L 8.75 7.5 L 8.75 10 L 9 10 C 9.5625 10 10 10.4375 10 11 L 10 13 C 10 13.5625 9.5625 14 9 14 L 7 14 C 6.4375 14 6 13.5625 6 13 L 6 11 C 6 10.4375 6.4375 10 7 10 L 7.25 10 L 7.25 7.5 L 3.5 7.5 C 3.09375 7.5 2.75 7.84375 2.75 8.25 L 2.75 10 L 3 10 C 3.5625 10 4 10.4375 4 11 L 4 13 C 4 13.5625 3.5625 14 3 14 L 1 14 C 0.4375 14 0 13.5625 0 13 L 0 11 C 0 10.4375 0.4375 10 1 10 L 1.25 10 L 1.25 8.25 C 1.25 7 2.25 6 3.5 6 L 7.25 6 L 7.25 4 L 7 4 C 6.4375 4 6 3.5625 6 3 L 6 1 Z"/></svg>
