<?xml version="1.0" encoding="UTF-8" standalone="yes"?><svg xmlns="http://www.w3.org/2000/svg" xmlns:xlink="http://www.w3.org/1999/xlink" version="1.2" baseProfile="tiny" x="0" y="0" width="28" height="22" viewBox="0 0 28.5 22.1563"><defs/><path fill="#6796ff" d="M 8.40625 9.6875 C 10.0938 10.5781 11.5781 11.875 12.8125 13.3594 C 13.3594 14.0469 13.8438 14.7969 14.25 15.5781 C 14.6406 14.7969 15.1406 14.0469 15.6875 13.3594 C 16.9219 11.875 18.4063 10.5781 20.0781 9.6875 C 22.1563 8.5625 24.5313 7.90625 27.0156 7.90625 L 27.5 7.90625 C 28.0469 7.90625 28.5 8.35938 28.5 8.90625 C 28.5 16.2188 22.5625 22.1563 15.2344 22.1563 L 13.25 22.1563 C 5.9375 22.1563 0 16.2188 0 8.90625 C 0 8.35938 0.4375 7.90625 0.984375 7.90625 L 1.48438 7.90625 C 3.95313 7.90625 6.32813 8.5625 8.40625 9.6875 M 15.0313 0.296875 C 15.875 1.09375 18.0625 3.40625 19.4375 7.32813 C 17.4688 8.35938 15.6875 9.75 14.25 11.375 C 12.8125 9.75 11.0313 8.35938 9.04688 7.32813 C 10.4375 3.40625 12.6094 1.09375 13.4531 0.296875 C 13.6563 0.09375 13.9531 0 14.25 0 C 14.5469 0 14.8438 0.09375 15.0313 0.296875"/></svg>
