<?xml version="1.0" encoding="UTF-8" standalone="yes"?><svg xmlns="http://www.w3.org/2000/svg" xmlns:xlink="http://www.w3.org/1999/xlink" version="1.2" baseProfile="tiny" x="0" y="0" width="32" height="32" viewBox="0 0 32 32"><defs/><path fill="#6796ff" d="M 14 10 C 14 8.875 14.875 8 16 8 C 17.125 8 18 8.875 18 10 C 18 11.125 17.125 12 16 12 C 14.875 12 14 11.125 14 10 M 16 32 C 24.8125 32 32 24.8125 32 16 C 32 7.1875 24.8125 0 16 0 C 7.1875 0 0 7.1875 0 16 C 0 24.8125 7.1875 32 16 32 M 16 4 C 19.3125 4 22 6.6875 22 10 C 22 13.3125 19.3125 16 16 16 C 12.6875 16 10 18.6875 10 22 C 10 25.3125 12.6875 28 16 28 C 9.375 28 4 22.625 4 16 C 4 9.375 9.375 4 16 4 M 14 22 C 14 20.875 14.875 20 16 20 C 17.125 20 18 20.875 18 22 C 18 23.125 17.125 24 16 24 C 14.875 24 14 23.125 14 22"/></svg>
