<?xml version="1.0" encoding="UTF-8" standalone="yes"?><svg xmlns="http://www.w3.org/2000/svg" xmlns:xlink="http://www.w3.org/1999/xlink" version="1.2" baseProfile="tiny" x="0" y="0" width="37" height="31" viewBox="0 0 37 31.5"><defs/><path fill="#6796ff" d="M 5.5 7.5 C 5.5 3.375 8.875 0 13 0 C 17.125 0 20.5 3.375 20.5 7.5 C 20.5 11.625 17.125 15 13 15 C 8.875 15 5.5 11.625 5.5 7.5 M 0 29.625 C 0 23.5 5 18.5 11.125 18.5 L 14.875 18.5 C 21 18.5 26 23.5 26 29.625 C 26 30.6875 25.1875 31.5 24.125 31.5 L 1.875 31.5 C 0.8125 31.5 0 30.6875 0 29.625 M 31 5.5 C 31.8125 5.5 32.5 6.1875 32.5 7 L 32.5 10 L 35.5 10 C 36.3125 10 37 10.6875 37 11.5 C 37 12.3125 36.3125 13 35.5 13 L 32.5 13 L 32.5 16 C 32.5 16.8125 31.8125 17.5 31 17.5 C 30.1875 17.5 29.5 16.8125 29.5 16 L 29.5 13 L 26.5 13 C 25.6875 13 25 12.3125 25 11.5 C 25 10.6875 25.6875 10 26.5 10 L 29.5 10 L 29.5 7 C 29.5 6.1875 30.1875 5.5 31 5.5"/></svg>
