<?xml version="1.0" encoding="UTF-8" standalone="yes"?><svg xmlns="http://www.w3.org/2000/svg" xmlns:xlink="http://www.w3.org/1999/xlink" version="1.2" baseProfile="tiny" x="0" y="0" width="34" height="34" viewBox="0 0 34 34"><defs/><path fill="#6796ff" d="M 0 3 C 0 1.375 1.375 0 3 0 L 6 0 C 7.125 0 8 0.875 8 2 C 8 3.125 7.125 4 6 4 L 4 4 L 4 12 C 4 15.3125 6.6875 18 10 18 C 13.3125 18 16 15.3125 16 12 L 16 4 L 14 4 C 12.875 4 12 3.125 12 2 C 12 0.875 12.875 0 14 0 L 17 0 C 18.6875 0 20 1.375 20 3 L 20 12 C 20 16.8125 16.5625 20.875 12 21.8125 L 12 23 C 12 26.875 15.125 30 19 30 C 22.875 30 26 26.875 26 23 L 26 17.6875 C 23.6875 16.8125 22 14.625 22 12 C 22 8.6875 24.6875 6 28 6 C 31.3125 6 34 8.6875 34 12 C 34 14.625 32.3125 16.8125 30 17.6875 L 30 23 C 30 29.0625 25.0625 34 19 34 C 12.9375 34 8 29.0625 8 23 L 8 21.8125 C 3.4375 20.875 0 16.8125 0 12 L 0 3 M 28 14 C 29.125 14 30 13.125 30 12 C 30 10.875 29.125 10 28 10 C 26.875 10 26 10.875 26 12 C 26 13.125 26.875 14 28 14"/></svg>
